<?xml version="1.0" standalone="no"?>
<!DOCTYPE svg PUBLIC "-//W3C//DTD SVG 20010904//EN"
 "http://www.w3.org/TR/2001/REC-SVG-20010904/DTD/svg10.dtd">
<svg version="1.0" xmlns="http://www.w3.org/2000/svg"
 width="1024.000000pt" height="1024.000000pt" viewBox="0 0 1024.000000 1024.000000"
 preserveAspectRatio="xMidYMid meet">
<metadata>
Created by potrace 1.11, written by Peter Selinger 2001-2013
</metadata>
<g transform="translate(0.000000,1024.000000) scale(0.100000,-0.100000)"
fill="#000000" stroke="none">
<path d="M1094 9389 c-65 -24 -140 -102 -184 -188 -35 -70 -57 -137 -377
-1146 -419 -1323 -471 -1490 -484 -1560 -22 -113 -17 -268 11 -339 27 -69 85
-132 151 -163 25 -12 200 -62 390 -112 189 -50 418 -111 509 -135 515 -137
1094 -286 1154 -297 95 -16 221 -8 271 18 52 27 117 97 148 160 13 26 86 208
162 404 l138 356 261 -85 c144 -46 369 -119 501 -162 l240 -78 6 -244 c4 -133
9 -275 13 -313 6 -58 4 -79 -13 -125 -35 -93 -127 -266 -394 -737 -22 -40 -44
-73 -48 -73 -9 0 -12 17 -50 305 -37 279 -47 510 -29 684 15 150 8 188 -46
244 -33 33 -41 37 -88 37 -111 0 -345 -149 -470 -299 -161 -194 -215 -238
-390 -321 -97 -46 -161 -108 -228 -223 -58 -99 -192 -233 -288 -286 -82 -45
-219 -91 -345 -115 -68 -13 -259 -36 -300 -36 -17 0 -12 -38 31 -255 198
-1003 730 -1874 1541 -2522 956 -764 2228 -1077 3443 -847 275 52 626 156 852
254 l93 40 -280 -281 c-251 -252 -276 -280 -245 -274 68 13 447 144 580 200
1169 493 2096 1459 2539 2644 47 128 110 322 138 426 3 11 -122 -106 -276
-260 l-281 -280 50 125 c131 322 220 650 270 993 32 218 42 369 42 617 0 331
-25 577 -92 890 -269 1272 -1122 2367 -2292 2943 -563 277 -1142 419 -1771
434 l-239 6 -78 -78 -79 -78 24 -32 c58 -75 71 -192 33 -286 -36 -88 -80 -149
-180 -247 -107 -103 -172 -139 -335 -186 -149 -42 -242 -82 -332 -144 -89 -61
-111 -84 -137 -146 -15 -38 -10 -34 86 57 141 134 205 165 445 213 226 46 387
53 621 30 240 -24 364 -60 507 -149 77 -48 180 -143 255 -234 50 -61 138 -127
248 -184 109 -57 167 -101 224 -172 109 -134 143 -237 144 -427 1 -118 -1
-128 -25 -170 -36 -60 -147 -166 -201 -190 -57 -26 -139 -26 -193 0 -23 11
-78 53 -122 93 -45 41 -106 91 -137 112 -92 63 -127 69 -424 71 -262 2 -263 2
-301 27 -63 42 -153 84 -231 108 -93 29 -231 31 -330 5 -91 -24 -232 -95 -317
-160 l-73 -55 -567 171 c-313 94 -569 171 -570 172 -2 1 43 160 99 352 98 336
101 353 102 449 1 88 -2 107 -25 155 -14 31 -41 73 -59 93 -58 67 -89 81 -500
228 -107 39 -504 183 -883 320 -378 138 -718 257 -755 264 -95 21 -196 18
-258 -6z m787 -945 c167 -64 434 -165 594 -225 159 -61 303 -118 320 -129 56
-35 72 -88 51 -165 -24 -84 -566 -1687 -581 -1714 -27 -53 -61 -74 -124 -79
-50 -4 -81 3 -212 46 -294 96 -835 270 -958 308 -93 29 -131 46 -153 68 -59
59 -57 65 271 1041 301 896 310 921 372 952 56 29 104 17 420 -103z m4004
-1758 c43 -32 164 -110 269 -173 l191 -114 5 113 c5 123 11 139 66 188 80 70
183 90 257 50 20 -11 91 -60 157 -109 131 -98 179 -116 277 -110 l52 4 -31
-32 -32 -33 32 0 c17 0 77 9 134 19 114 22 368 41 523 41 126 -1 158 -14 258
-109 114 -108 187 -264 229 -486 19 -99 21 -157 25 -600 4 -468 4 -495 -16
-595 -45 -224 -199 -439 -381 -534 -80 -41 -152 -51 -279 -36 -164 18 -281 88
-426 251 -225 255 -297 373 -380 629 -51 156 -109 295 -139 335 -61 80 -113
56 -321 -152 -155 -155 -217 -206 -268 -218 -19 -5 -29 0 -47 22 -20 25 -22
37 -18 113 5 104 29 153 129 266 68 76 96 133 83 169 -6 14 -10 13 -35 -11
-28 -27 -29 -27 -29 -6 0 27 -41 49 -114 63 -45 8 -74 6 -176 -16 -143 -29
-269 -33 -387 -10 -43 8 -100 15 -126 15 l-48 0 86 88 c109 110 183 221 234
348 85 212 122 388 124 591 l2 131 21 -16 c11 -9 56 -44 99 -76z m-945 -1393
c25 -38 85 -108 135 -157 86 -85 292 -263 345 -297 l25 -17 -20 -22 c-19 -22
-19 -22 5 -40 62 -47 217 -124 326 -161 65 -22 269 -82 452 -134 447 -128 537
-162 672 -263 208 -155 358 -375 427 -627 26 -96 27 -113 31 -385 3 -270 2
-289 -18 -349 -38 -113 -82 -167 -226 -277 -74 -56 -192 -115 -359 -179 -593
-227 -673 -268 -865 -434 -52 -46 -125 -103 -162 -127 -179 -119 -623 -292
-872 -339 -133 -25 -273 -37 -329 -26 -133 24 -160 42 -335 215 -90 88 -172
178 -183 198 -10 20 -31 76 -46 125 l-28 88 0 455 c0 431 10 620 33 641 4 4
54 0 112 -8 58 -8 157 -13 220 -11 102 3 121 6 172 31 106 52 178 147 229 302
23 70 23 73 30 825 6 779 12 901 48 950 15 22 115 90 131 90 3 0 26 -30 50
-67z"/>
</g>
</svg>
