<?xml version="1.0" encoding="UTF-8" standalone="no"?>
<!-- Created with Inkscape (http://www.inkscape.org/) -->

<svg
   width="18.62656mm"
   height="4.6795969mm"
   viewBox="0 0 18.62656 4.6795969"
   version="1.1"
   id="svg10242"
   xmlns="http://www.w3.org/2000/svg"
   xmlns:svg="http://www.w3.org/2000/svg">
  <defs
     id="defs10239">
    <clipPath
       clipPathUnits="userSpaceOnUse"
       id="clipPath9612">
      <path
         d="m 60,76.999 h 88.799 V 93.771 H 60 Z"
         id="path9610" />
    </clipPath>
  </defs>
  <g
     id="layer1"
     transform="translate(-127.76364,-143.08476)">
    <g
       id="g9606"
       transform="matrix(0.35277777,0,0,-0.35277777,106.59687,175.10707)">
      <g
         id="g9608"
         clip-path="url(#clipPath9612)">
        <g
           id="g9614"
           transform="translate(111.3473,87.4279)">
          <path
             d="M 0,0 C 0.235,0 0.415,-0.179 0.415,-0.414 0.415,-0.649 0.235,-0.829 0,-0.829 h -0.511 l -2.515,-5.997 c -0.732,-1.741 -1.313,-3.095 -3.248,-3.095 -0.372,0 -0.732,0.055 -0.953,0.124 -0.622,0.208 -0.373,1.037 0.152,0.94 0.249,-0.042 0.525,-0.111 0.76,-0.111 0.595,0 1.009,0.208 1.313,0.553 0.304,0.345 0.539,0.829 0.691,1.188 l 0.138,0.332 -2.418,6.066 H -8.94 v -5.182 h 1.05 c 0.235,0 0.414,-0.179 0.414,-0.414 0,-0.235 -0.179,-0.415 -0.414,-0.415 h -3.081 c -0.235,0 -0.415,0.18 -0.415,0.415 0,0.235 0.18,0.414 0.415,0.414 h 0.912 v 5.182 h -0.912 c -0.235,0 -0.415,0.18 -0.415,0.415 0,0.235 0.18,0.414 0.415,0.414 h 0.912 v 0.967 c 0,1.506 0.981,2.377 2.404,2.377 0.594,0 1.133,-0.124 1.478,-0.249 0.636,-0.221 0.373,-1.16 -0.331,-0.912 -0.29,0.097 -0.678,0.208 -1.078,0.208 -0.981,0 -1.354,-0.65 -1.354,-1.52 V 0 h 4.242 c 0.235,0 0.414,-0.179 0.414,-0.414 0,-0.235 -0.179,-0.415 -0.414,-0.415 H -5.43 l 1.879,-4.85 1.934,4.85 h -0.787 c -0.235,0 -0.415,0.18 -0.415,0.415 0,0.235 0.18,0.414 0.415,0.414 z m -14.039,2.971 c 0.525,0 0.94,-0.415 0.94,-0.94 0,-0.511 -0.415,-0.925 -0.94,-0.925 -0.511,0 -0.926,0.414 -0.926,0.925 0,0.525 0.415,0.94 0.926,0.94 m 0.635,-8.982 h 0.913 c 0.235,0 0.414,-0.179 0.414,-0.414 0,-0.235 -0.179,-0.415 -0.414,-0.415 h -2.944 c -0.235,0 -0.414,0.18 -0.414,0.415 0,0.235 0.179,0.414 0.414,0.414 h 0.912 v 5.182 h -0.912 c -0.235,0 -0.414,0.18 -0.414,0.415 0,0.235 0.179,0.414 0.414,0.414 h 1.617 c 0.235,0 0.414,-0.179 0.414,-0.414 z m -4.463,0 h 0.912 c 0.235,0 0.415,-0.179 0.415,-0.414 0,-0.235 -0.18,-0.415 -0.415,-0.415 h -2.943 c -0.235,0 -0.414,0.18 -0.414,0.415 0,0.235 0.179,0.414 0.414,0.414 h 0.912 V 2.28 h -0.912 c -0.235,0 -0.414,0.18 -0.414,0.415 0,0.235 0.179,0.414 0.414,0.414 h 1.617 c 0.235,0 0.414,-0.179 0.414,-0.414 z m -4.352,2.584 c 0,1.797 -0.954,2.639 -2.114,2.639 -1.161,0 -2.115,-0.842 -2.115,-2.639 0,-1.796 0.954,-2.639 2.115,-2.639 1.174,0 2.114,0.843 2.114,2.639 m -4.242,2.322 c 0.469,0.76 1.285,1.243 2.335,1.243 1.796,0 3.026,-1.354 3.026,-3.523 0,-2.114 -1.161,-3.593 -3.068,-3.593 -0.925,0 -1.754,0.346 -2.266,1.175 v -3.248 h 0.995 c 0.235,0 0.415,-0.179 0.415,-0.414 0,-0.235 -0.18,-0.415 -0.415,-0.415 h -2.888 c -0.235,0 -0.414,0.18 -0.414,0.415 0,0.235 0.179,0.414 0.414,0.414 h 0.774 v 8.222 h -0.663 c -0.235,0 -0.415,0.18 -0.415,0.415 0,0.235 0.18,0.414 0.415,0.414 h 1.34 c 0.235,0 0.415,-0.179 0.415,-0.414 z m -19.732,3.109 h -0.401 l -1.161,-4.118 h 2.709 z m 5.085,-2.833 c -0.235,0 -0.415,0.18 -0.415,0.415 0,0.235 0.18,0.414 0.415,0.414 h 1.34 c 0.235,0 0.415,-0.179 0.415,-0.414 v -0.691 c 0.925,0.856 1.699,1.243 2.584,1.243 1.133,0 1.658,-0.622 1.824,-1.298 0.912,0.911 1.81,1.298 2.735,1.298 1.659,0 1.907,-1.229 1.907,-1.976 v -4.173 h 0.719 c 0.235,0 0.414,-0.179 0.414,-0.414 0,-0.235 -0.179,-0.415 -0.414,-0.415 h -2.612 c -0.235,0 -0.414,0.18 -0.414,0.415 0,0.235 0.179,0.414 0.414,0.414 h 0.774 v 4.09 c 0,0.664 -0.345,1.092 -1.078,1.092 -0.746,0 -1.533,-0.442 -2.321,-1.175 v -4.007 h 0.718 c 0.235,0 0.415,-0.179 0.415,-0.414 0,-0.235 -0.18,-0.415 -0.415,-0.415 h -2.611 c -0.235,0 -0.415,0.18 -0.415,0.415 0,0.235 0.18,0.414 0.415,0.414 h 0.774 v 4.09 c 0,0.664 -0.346,1.092 -1.078,1.092 -0.746,0 -1.534,-0.442 -2.308,-1.175 v -4.007 h 0.774 c 0.235,0 0.415,-0.179 0.415,-0.414 0,-0.235 -0.18,-0.415 -0.415,-0.415 h -6.287 c -0.235,0 -0.415,0.18 -0.415,0.415 0,0.235 0.18,0.414 0.415,0.414 h 0.94 l -0.871,2.999 h -3.275 l -0.843,-2.999 h 0.94 c 0.235,0 0.415,-0.179 0.415,-0.414 0,-0.235 -0.18,-0.415 -0.415,-0.415 h -2.985 c -0.234,0 -0.414,0.18 -0.414,0.415 0,0.235 0.18,0.414 0.414,0.414 h 0.885 l 2.445,8.015 h -1.174 c -0.235,0 -0.415,0.179 -0.415,0.414 0,0.235 0.18,0.415 0.415,0.415 h 2.998 c 0.277,0 0.47,-0.166 0.539,-0.415 l 2.584,-8.429 h 2.211 v 5.182 z"
             style="fill:#f36018;fill-opacity:1;fill-rule:nonzero;stroke:none"
             id="path9616" />
        </g>
        <g
           id="g9618"
           transform="translate(111.736,82.5779)">
          <path
             d="m 0,0 c 0.594,0 1.064,-0.47 1.064,-1.064 0,-0.594 -0.47,-1.064 -1.064,-1.064 -0.594,0 -1.064,0.47 -1.064,1.064 C -1.064,-0.47 -0.594,0 0,0"
             style="fill:#f36018;fill-opacity:1;fill-rule:nonzero;stroke:none"
             id="path9620" />
        </g>
      </g>
    </g>
  </g>
</svg>
