<?xml version="1.0" encoding="UTF-8"?>
<svg width="139px" height="24px" viewBox="0 0 139 24" version="1.1" xmlns="http://www.w3.org/2000/svg" xmlns:xlink="http://www.w3.org/1999/xlink">
    <title>Logo/Classtime logo</title>
    <g id="Page-1" stroke="none" stroke-width="1" fill="none" fill-rule="evenodd">
        <g id="Landing_business_new-tab" transform="translate(-32.000000, -112.000000)" fill="#23A9F6">
            <g id="Header/-gopollcok-/" transform="translate(0.000000, 80.000000)">
                <g id="Logo/Classtime-logo" transform="translate(32.000000, 32.000000)">
                    <g id="Class-time_logo-18">
                        <g id="logo" fill-rule="nonzero">
                            <polygon id="Shape" points="21.3607029 23.7777778 21.3607029 2 24.7357827 2 24.7357827 23.7777778"></polygon>
                            <path d="M38.7690096,21.8666667 C37.6587859,23.2444444 35.8824281,23.9111111 33.6175719,23.9111111 C30.242492,23.9111111 28.1552716,21.8222222 28.1552716,19.0666667 C28.1552716,16.2222222 30.286901,14.4 34.0616613,14.3555556 L38.7690096,14.3555556 L38.7690096,13.8666667 C38.7690096,11.9111111 37.5255591,10.7111111 35.0386581,10.7111111 C33.528754,10.7111111 31.9744409,11.2444444 30.4201278,12.3111111 L29.0434505,9.95555556 C31.2194888,8.66666667 32.7738019,8 35.7492013,8 C39.7460064,8 42.0108626,10.0444444 42.0552716,13.4666667 L42.0996805,23.6888889 L38.7690096,23.6888889 L38.7690096,21.8666667 L38.7690096,21.8666667 Z M38.7246006,18.2666667 L38.7246006,16.8444444 L34.5057508,16.8444444 C32.2853035,16.8444444 31.2638978,17.4222222 31.2638978,18.9333333 C31.2638978,20.3555556 32.4185304,21.2444444 34.2837061,21.2444444 C36.6817891,21.2444444 38.5469649,20 38.7246006,18.2666667 Z" id="Shape"></path>
                            <path d="M56.7102236,9.6 L55.4667732,12.0888889 C54.0900958,11.2444444 52.358147,10.7111111 50.9814696,10.7111111 C49.6492013,10.7111111 48.7166134,11.1555556 48.7166134,12.2666667 C48.7166134,15.1555556 57.0210863,13.6 56.9766773,19.2444444 C56.9766773,22.4444444 54.1345048,23.8666667 50.9814696,23.8666667 C48.7166134,23.8666667 46.2741214,23.1111111 44.7198083,21.6888889 L45.9188498,19.2888889 C47.2511182,20.4888889 49.4271565,21.2444444 51.1146965,21.2444444 C52.5357827,21.2444444 53.6460064,20.7555556 53.6460064,19.5555556 C53.6460064,16.3555556 45.4303514,18.1333333 45.4747604,12.5333333 C45.4747604,9.37777778 48.228115,8 51.2035144,8 C53.2019169,8 55.2891374,8.62222222 56.7102236,9.6 Z" id="Shape"></path>
                            <path d="M70.4769968,9.6 L69.2335463,12.0888889 C67.856869,11.2444444 66.1249201,10.7111111 64.7482428,10.7111111 C63.4159744,10.7111111 62.4833866,11.1555556 62.4833866,12.2666667 C62.4833866,15.1555556 70.7878594,13.6 70.7434505,19.2444444 C70.7434505,22.4444444 67.901278,23.8666667 64.7482428,23.8666667 C62.4833866,23.8666667 60.0408946,23.1111111 58.4865815,21.6888889 L59.685623,19.2888889 C61.0178914,20.4888889 63.1939297,21.2444444 64.8814696,21.2444444 C66.3025559,21.2444444 67.4127796,20.7555556 67.4127796,19.5555556 C67.4127796,16.3555556 59.1971246,18.1333333 59.2415335,12.5333333 C59.2415335,9.37777778 61.9948882,8 64.9702875,8 C66.9686901,8 69.0559105,8.62222222 70.4769968,9.6 Z" id="Shape"></path>
                            <path d="M83.4,22.7555556 C82.1565495,23.5111111 80.8686901,23.9111111 79.5808307,23.9111111 C77.2271565,23.9111111 75.228754,22.5777778 75.228754,19.3777778 L75.228754,11.2888889 L75.228754,8.75555556 L75.228754,4.44444444 L78.5594249,4.44444444 L78.5594249,8.71111111 L78.5594249,11.2444444 L78.5594249,18.7111111 C78.5594249,20.3111111 79.1811502,20.8444444 80.2469649,20.8444444 C80.957508,20.8444444 81.6680511,20.6222222 82.600639,20.1777778 L83.4,22.7555556 Z" id="Shape"></path>
                            <path d="M90.1501597,2.8 C90.1501597,3.95555556 89.3063898,4.84444444 88.1961661,4.84444444 C87.0859425,4.84444444 86.2421725,4 86.2421725,2.8 C86.2421725,1.6 87.0859425,0.755555556 88.1961661,0.755555556 C89.3063898,0.755555556 90.1501597,1.6 90.1501597,2.8 Z M86.5086262,23.7777778 L86.5086262,8.17777778 L89.8392971,8.17777778 L89.8392971,23.7777778 L86.5086262,23.7777778 Z" id="Shape"></path>
                            <path d="M120.88115,14.0444444 L120.88115,23.7333333 L117.50607,23.7333333 L117.50607,14.9777778 C117.50607,12.6222222 116.084984,11.1555556 113.820128,11.1555556 C111.155591,11.2444444 109.556869,13.2888889 109.556869,16.0444444 L109.556869,23.7777778 L106.181789,23.7777778 L106.181789,14.9777778 C106.181789,12.6222222 104.805112,11.1555556 102.540256,11.1555556 C99.8313099,11.2444444 98.1881789,13.2888889 98.1881789,16.0444444 L98.1881789,23.7777778 L94.857508,23.7777778 L94.857508,8.17777778 L98.1881789,8.17777778 L98.1881789,11.2 C99.2539936,9.02222222 101.252396,8.04444444 103.828115,8.04444444 C106.625879,8.04444444 108.535463,9.42222222 109.246006,11.7777778 C110.223003,9.15555556 112.310224,8.04444444 115.152396,8.04444444 C118.749521,8.04444444 120.88115,10.3111111 120.88115,14.0444444 Z" id="Shape"></path>
                            <path d="M138.689137,17.2444444 L126.920767,17.2444444 C127.453674,19.6444444 129.274441,21.1555556 131.761342,21.1555556 C133.448882,21.1555556 135.003195,20.4888889 136.157827,19.3333333 L137.934185,21.2444444 C136.424281,22.9333333 134.203834,23.8666667 131.494888,23.8666667 C126.698722,23.8666667 123.501278,20.6666667 123.501278,15.9555556 C123.501278,11.2444444 126.743131,8.04444444 131.40607,8 C136.868371,8.04444444 139.088818,11.6 138.689137,17.2444444 Z M135.758147,14.8 C135.62492,12.2666667 133.981789,10.7555556 131.40607,10.7555556 C128.963578,10.7555556 127.231629,12.3111111 126.831949,14.8 L135.758147,14.8 Z" id="Shape"></path>
                            <path d="M81.3127796,6.44444444 C79.5364217,9.02222222 76.3833866,10.4888889 73.1415335,10.0444444 L73.1415335,10.0444444 L71.7204473,12.6222222 L71.7204473,12.6222222 C71.7648562,12.6222222 71.8092652,12.6222222 71.8092652,12.6666667 C76.4277955,13.6888889 81.0463259,11.6888889 83.5776358,8 L81.3127796,6.44444444 Z" id="Shape"></path>
                            <path d="M16.5645367,18.2666667 C15.0102236,19.7777778 12.9230032,20.7111111 10.8357827,20.7111111 C6.75015974,20.7111111 3.50830671,17.5111111 3.50830671,13.4666667 C3.50830671,9.91111111 6.03961661,7.02222222 9.45910543,6.4 C10.1252396,7.55555556 11.0134185,8.57777778 12.0348243,9.42222222 L12.0348243,9.42222222 C13.1894569,10.4 14.9214058,10.4 16.1204473,9.33333333 C17.4083067,8.17777778 17.5415335,6.22222222 16.386901,4.93333333 C16.0760383,4.57777778 15.6763578,4.31111111 15.2766773,4.13333333 C15.2766773,4.13333333 15.2322684,4.08888889 15.2322684,4.08888889 C13.9,3.51111111 12.4789137,3.2 11.0578275,3.15555556 C10.7469649,2.13333333 10.613738,1.06666667 10.658147,0 L7.90479233,1.68888889 C7.94920128,2.26666667 8.08242812,2.84444444 8.21565495,3.42222222 C3.46389776,4.48888889 0,8.48888889 0,13.4666667 C0,19.3777778 4.6629393,23.9111111 10.658147,23.9111111 C13.5447284,23.9111111 16.5201278,22.5777778 18.6073482,20.5333333 L16.5645367,18.2666667 Z M14.2108626,6.62222222 L14.2108626,6.62222222 C14.3440895,6.66666667 14.4329073,6.84444444 14.4329073,6.97777778 C14.4329073,7.02222222 14.4329073,7.06666667 14.3884984,7.11111111 C14.3884984,7.15555556 14.3884984,7.15555556 14.3440895,7.2 C14.3440895,7.2 14.3440895,7.2 14.3440895,7.2 C14.2996805,7.33333333 14.1664537,7.42222222 14.0332268,7.42222222 C13.9,7.42222222 13.8111821,7.37777778 13.7223642,7.24444444 L13.7223642,7.24444444 C13.4115016,6.97777778 13.1450479,6.66666667 12.8785942,6.4 C12.8341853,6.35555556 12.7897764,6.31111111 12.7453674,6.26666667 C12.7453674,6.26666667 12.7453674,6.26666667 12.7453674,6.26666667 C13.2782748,6.31111111 13.7667732,6.44444444 14.2108626,6.62222222 Z" id="Shape"></path>
                        </g>
                    </g>
                </g>
            </g>
        </g>
    </g>
</svg>