<?xml version="1.0" encoding="UTF-8" standalone="no"?>
<!-- Generator: Adobe Illustrator 24.1.0, SVG Export Plug-In . SVG Version: 6.00 Build 0)  -->

<svg
   xmlns:dc="http://purl.org/dc/elements/1.1/"
   xmlns:cc="http://creativecommons.org/ns#"
   xmlns:rdf="http://www.w3.org/1999/02/22-rdf-syntax-ns#"
   xmlns:svg="http://www.w3.org/2000/svg"
   xmlns="http://www.w3.org/2000/svg"
   xmlns:xlink="http://www.w3.org/1999/xlink"
   xmlns:sodipodi="http://sodipodi.sourceforge.net/DTD/sodipodi-0.dtd"
   xmlns:inkscape="http://www.inkscape.org/namespaces/inkscape"
   version="1.1"
   id="Layer_1"
   x="0px"
   y="0px"
   viewBox="0 0 1250.0143 127.99422"
   xml:space="preserve"
   sodipodi:docname="logo.svg"
   width="1250.0143"
   height="127.99422"
   inkscape:version="0.92.4 (5da689c313, 2019-01-14)"><metadata
   id="metadata190"><rdf:RDF><cc:Work
       rdf:about=""><dc:format>image/svg+xml</dc:format><dc:type
         rdf:resource="http://purl.org/dc/dcmitype/StillImage" /><dc:title></dc:title></cc:Work></rdf:RDF></metadata><defs
   id="defs188" /><sodipodi:namedview
   pagecolor="#ffffff"
   bordercolor="#666666"
   borderopacity="1"
   objecttolerance="10"
   gridtolerance="10"
   guidetolerance="10"
   inkscape:pageopacity="0"
   inkscape:pageshadow="2"
   inkscape:window-width="1920"
   inkscape:window-height="1027"
   id="namedview186"
   showgrid="false"
   inkscape:zoom="0.184375"
   inkscape:cx="621.44423"
   inkscape:cy="75.94"
   inkscape:window-x="1912"
   inkscape:window-y="-8"
   inkscape:window-maximized="1"
   inkscape:current-layer="Layer_1" />
<style
   type="text/css"
   id="style101">
	.st0{enable-background:new    ;}
	.st1{fill:#66CC33;}
	.st2{clip-path:url(#SVGID_2_);}
	.st3{clip-path:url(#SVGID_4_);fill:#FFFFFF;}
</style>
<g
   class="st0"
   id="g107"
   style="enable-background:new"
   transform="translate(-18.555773,-459.94577)">
	<path
   class="st1"
   d="m 173.56,472.66 h 14.9 v 88.26 h -14.9 z"
   id="path103"
   inkscape:connector-curvature="0"
   style="fill:#66cc33" />
	<path
   class="st1"
   d="m 221.92,524.56 v 36.36 h -14.14 v -67.17 h 14.14 V 506 c 2.27,-4.12 5.41,-7.36 9.41,-9.72 4,-2.36 8.31,-3.54 12.94,-3.54 7.58,0 13.7,2.32 18.37,6.94 4.67,4.63 7.01,11.32 7.01,20.08 v 41.16 h -14.14 v -36.87 c 0,-12.37 -5.14,-18.56 -15.4,-18.56 -4.88,0 -9.13,1.62 -12.75,4.86 -3.63,3.24 -5.44,7.98 -5.44,14.21 z"
   id="path105"
   inkscape:connector-curvature="0"
   style="fill:#66cc33" />
</g>
<g
   class="st0"
   id="g111"
   style="enable-background:new"
   transform="translate(-18.555773,-459.94577)">
	<path
   class="st1"
   d="m 306.53,505.11 v 34.09 c 0,3.2 0.84,5.74 2.53,7.64 1.68,1.89 4.04,2.84 7.07,2.84 3.03,0 5.93,-1.47 8.71,-4.42 l 5.81,9.97 c -4.97,4.46 -10.46,6.69 -16.48,6.69 -6.02,0 -11.15,-2.08 -15.4,-6.25 -4.25,-4.17 -6.38,-9.79 -6.38,-16.86 V 505.1 h -8.46 v -11.36 h 8.46 v -21.09 h 14.14 v 21.09 h 17.68 v 11.36 h -17.68 z"
   id="path109"
   inkscape:connector-curvature="0"
   style="fill:#66cc33" />
</g>
<g
   class="st0"
   id="g117"
   style="enable-background:new"
   transform="translate(-18.555773,-459.94577)">
	<path
   class="st1"
   d="m 397.4,533.52 h -52.65 c 0.34,4.88 2.57,8.82 6.69,11.8 4.12,2.99 8.84,4.48 14.14,4.48 8.42,0 14.81,-2.65 19.19,-7.95 l 8.08,8.84 c -7.24,7.49 -16.67,11.24 -28.28,11.24 -9.43,0 -17.45,-3.13 -24.05,-9.41 -6.61,-6.27 -9.91,-14.69 -9.91,-25.25 0,-10.56 3.37,-18.96 10.1,-25.19 6.73,-6.23 14.67,-9.34 23.8,-9.34 9.13,0 16.9,2.76 23.3,8.27 6.4,5.51 9.6,13.11 9.6,22.79 v 9.72 z m -52.65,-11.11 h 38.51 c 0,-5.64 -1.77,-9.98 -5.3,-13.01 -3.53,-3.03 -7.89,-4.55 -13.07,-4.55 -5.18,0 -9.83,1.58 -13.95,4.73 -4.13,3.17 -6.19,7.44 -6.19,12.83 z"
   id="path113"
   inkscape:connector-curvature="0"
   style="fill:#66cc33" />
	<path
   class="st1"
   d="m 472.53,493.75 v 58.59 c 0,11.87 -3.22,20.77 -9.66,26.7 -6.44,5.93 -14.71,8.9 -24.81,8.9 -10.1,0 -19.24,-3.16 -27.4,-9.47 l 6.69,-10.73 c 6.57,4.97 13.19,7.45 19.89,7.45 6.7,0 11.99,-1.73 15.91,-5.18 3.91,-3.45 5.87,-8.96 5.87,-16.54 v -8.59 c -2.1,3.96 -5.11,7.11 -9.03,9.47 -3.91,2.36 -8.31,3.54 -13.19,3.54 -8.92,0 -16.25,-3.11 -21.97,-9.34 -5.73,-6.23 -8.59,-13.97 -8.59,-23.23 0,-9.26 2.86,-17 8.59,-23.23 5.72,-6.23 13.02,-9.34 21.91,-9.34 8.88,0 16.1,3.66 21.65,10.98 v -9.97 h 14.14 z m -52.4,31 c 0,5.51 1.7,10.27 5.11,14.27 3.41,4 8,6 13.76,6 5.76,0 10.44,-1.94 14.02,-5.81 3.58,-3.87 5.37,-8.69 5.37,-14.46 0,-5.76 -1.81,-10.65 -5.43,-14.65 -3.62,-4 -8.29,-6 -14.02,-6 -5.73,0 -10.29,2.06 -13.7,6.19 -3.41,4.12 -5.11,8.94 -5.11,14.46 z"
   id="path115"
   inkscape:connector-curvature="0"
   style="fill:#66cc33" />
</g>
<g
   class="st0"
   id="g121"
   style="enable-background:new"
   transform="translate(-18.555773,-459.94577)">
	<path
   class="st1"
   d="m 526.96,507.01 c -6.99,0 -12.25,2.27 -15.78,6.82 -3.54,4.54 -5.3,10.65 -5.3,18.31 v 28.79 h -14.14 v -67.17 h 14.14 v 13.51 c 2.27,-4.21 5.37,-7.66 9.28,-10.35 3.91,-2.69 8.06,-4.08 12.44,-4.17 l 0.13,14.27 c -0.27,-0.01 -0.52,-0.01 -0.77,-0.01 z"
   id="path119"
   inkscape:connector-curvature="0"
   style="fill:#66cc33" />
</g>
<g
   class="st0"
   id="g125"
   style="enable-background:new"
   transform="translate(-18.555773,-459.94577)">
	<path
   class="st1"
   d="m 539.2,480.36 c -1.77,-1.77 -2.65,-3.87 -2.65,-6.31 0,-2.44 0.88,-4.55 2.65,-6.31 1.77,-1.77 3.87,-2.65 6.31,-2.65 2.44,0 4.55,0.88 6.31,2.65 1.76,1.77 2.65,3.87 2.65,6.31 0,2.44 -0.88,4.55 -2.65,6.31 -1.77,1.77 -3.87,2.65 -6.31,2.65 -2.44,0.01 -4.55,-0.88 -6.31,-2.65 z m 13.25,80.56 h -14.14 v -67.17 h 14.14 z"
   id="path123"
   inkscape:connector-curvature="0"
   style="fill:#66cc33" />
</g>
<g
   class="st0"
   id="g129"
   style="enable-background:new"
   transform="translate(-18.555773,-459.94577)">
	<path
   class="st1"
   d="m 586.66,505.11 v 34.09 c 0,3.2 0.84,5.74 2.53,7.64 1.68,1.89 4.04,2.84 7.07,2.84 3.03,0 5.93,-1.47 8.71,-4.42 l 5.81,9.97 c -4.97,4.46 -10.46,6.69 -16.48,6.69 -6.02,0 -11.15,-2.08 -15.4,-6.25 -4.25,-4.17 -6.38,-9.79 -6.38,-16.86 V 505.1 h -8.46 v -11.36 h 8.46 v -21.09 h 14.14 v 21.09 h 17.68 v 11.36 h -17.68 z"
   id="path127"
   inkscape:connector-curvature="0"
   style="fill:#66cc33" />
</g>
<g
   class="st0"
   id="g133"
   style="enable-background:new"
   transform="translate(-18.555773,-459.94577)">
	<path
   class="st1"
   d="m 624.67,587.69 c -6.15,0 -11.7,-2.23 -16.67,-6.69 l 6.44,-11.49 c 2.95,2.78 6,4.17 9.15,4.17 3.16,0 5.72,-1.14 7.7,-3.41 1.98,-2.27 2.97,-4.76 2.97,-7.45 0,-1.18 -9.05,-24.2 -27.15,-69.06 h 15.15 l 20.08,49.49 20.08,-49.49 h 15.15 L 645,573.55 c -1.94,4.38 -4.72,7.83 -8.33,10.35 -3.63,2.52 -7.63,3.79 -12,3.79 z"
   id="path131"
   inkscape:connector-curvature="0"
   style="fill:#66cc33" />
</g>
<g
   class="st0"
   id="g137"
   style="enable-background:new"
   transform="translate(-18.555773,-459.94577)">
	<path
   class="st1"
   d="m 726.16,540.84 -8.84,20.08 h -15.91 l 38.89,-88.26 h 15.91 l 38.89,88.26 h -15.91 l -8.84,-20.08 z m 38.13,-13.76 -16.04,-36.36 -16.04,36.36 z"
   id="path135"
   inkscape:connector-curvature="0"
   style="fill:#66cc33" />
</g>
<g
   class="st0"
   id="g141"
   style="enable-background:new"
   transform="translate(-18.555773,-459.94577)">
	<path
   class="st1"
   d="m 803.71,552.33 c -6.31,-6.4 -9.47,-14.81 -9.47,-25.25 0,-10.44 3.24,-18.77 9.72,-25 6.48,-6.23 14.21,-9.34 23.17,-9.34 8.96,0 16.18,3.79 21.65,11.36 v -36.87 h 14.14 v 93.69 h -14.14 v -10.1 c -5.22,7.41 -12.84,11.11 -22.85,11.11 -8.5,0 -15.9,-3.2 -22.22,-9.6 z m 4.68,-24.68 c 0,6.44 2.06,11.68 6.19,15.72 4.12,4.04 8.96,6.06 14.52,6.06 5.55,0 10.27,-2.04 14.14,-6.12 3.87,-4.08 5.81,-9.32 5.81,-15.72 0,-6.4 -1.94,-11.74 -5.81,-16.04 -3.87,-4.29 -8.63,-6.44 -14.27,-6.44 -5.64,0 -10.48,2.15 -14.52,6.44 -4.04,4.29 -6.06,9.66 -6.06,16.1 z"
   id="path139"
   inkscape:connector-curvature="0"
   style="fill:#66cc33" />
</g>
<g
   class="st0"
   id="g145"
   style="enable-background:new"
   transform="translate(-18.555773,-459.94577)">
	<path
   class="st1"
   d="m 898.88,560.92 -27.02,-67.17 h 14.65 l 20.46,50.76 20.45,-50.76 h 14.65 l -27.02,67.17 z"
   id="path143"
   inkscape:connector-curvature="0"
   style="fill:#66cc33" />
</g>
<g
   class="st0"
   id="g153"
   style="enable-background:new"
   transform="translate(-18.555773,-459.94577)">
	<path
   class="st1"
   d="m 1000.8,551.89 c -6.74,6.69 -15.15,10.04 -25.25,10.04 -10.1,0 -18.52,-3.35 -25.25,-10.04 -6.74,-6.69 -10.1,-14.88 -10.1,-24.56 0,-9.68 3.37,-17.87 10.1,-24.56 6.73,-6.69 15.15,-10.04 25.25,-10.04 10.1,0 18.52,3.35 25.25,10.04 6.73,6.69 10.1,14.88 10.1,24.56 0,9.68 -3.37,17.87 -10.1,24.56 z m -40.47,-8.71 c 4,4.08 9.07,6.12 15.21,6.12 6.14,0 11.22,-2.04 15.21,-6.12 4,-4.08 6,-9.36 6,-15.85 0,-6.48 -2,-11.76 -6,-15.85 -4,-4.08 -9.07,-6.12 -15.21,-6.12 -6.15,0 -11.22,2.04 -15.21,6.12 -4,4.08 -6,9.37 -6,15.85 0.01,6.49 2,11.77 6,15.85 z"
   id="path147"
   inkscape:connector-curvature="0"
   style="fill:#66cc33" />
	<path
   class="st1"
   d="m 1054.21,561.93 c -9.34,0 -17.38,-3.18 -24.12,-9.53 -6.74,-6.35 -10.1,-14.67 -10.1,-24.94 0,-10.27 3.51,-18.62 10.54,-25.06 7.03,-6.44 15.59,-9.66 25.69,-9.66 10.1,0 18.64,3.49 25.63,10.48 l -8.33,10.23 c -5.81,-5.05 -11.66,-7.58 -17.55,-7.58 -5.89,0 -11.01,1.96 -15.34,5.87 -4.34,3.91 -6.5,8.96 -6.5,15.15 0,6.19 2.15,11.43 6.44,15.72 4.29,4.29 9.57,6.44 15.85,6.44 6.27,0 12.18,-2.86 17.74,-8.58 l 8.33,9.09 c -8.16,8.25 -17.59,12.37 -28.28,12.37 z"
   id="path149"
   inkscape:connector-curvature="0"
   style="fill:#66cc33" />
	<path
   class="st1"
   d="m 1148.53,560.92 h -12.88 v -8.96 c -5.56,6.65 -13,9.97 -22.35,9.97 -6.99,0 -12.77,-1.98 -17.36,-5.93 -4.59,-3.96 -6.88,-9.24 -6.88,-15.85 0,-6.61 2.44,-11.55 7.32,-14.84 4.88,-3.28 11.49,-4.92 19.82,-4.92 h 18.31 v -2.53 c 0,-8.92 -4.97,-13.38 -14.9,-13.38 -6.23,0 -12.71,2.27 -19.44,6.82 l -6.31,-8.84 c 8.16,-6.48 17.42,-9.72 27.78,-9.72 7.91,0 14.37,2 19.38,6 5.01,4 7.51,10.29 7.51,18.88 z m -14.15,-25 v -5.68 h -15.91 c -10.19,0 -15.28,3.2 -15.28,9.6 0,3.28 1.26,5.79 3.79,7.51 2.52,1.73 6.04,2.59 10.54,2.59 4.5,0 8.44,-1.26 11.81,-3.79 3.37,-2.53 5.05,-5.94 5.05,-10.23 z"
   id="path151"
   inkscape:connector-curvature="0"
   style="fill:#66cc33" />
</g>
<g
   class="st0"
   id="g157"
   style="enable-background:new"
   transform="translate(-18.555773,-459.94577)">
	<path
   class="st1"
   d="m 1177.66,505.11 v 34.09 c 0,3.2 0.84,5.74 2.53,7.64 1.68,1.89 4.04,2.84 7.07,2.84 3.03,0 5.93,-1.47 8.71,-4.42 l 5.81,9.97 c -4.97,4.46 -10.46,6.69 -16.48,6.69 -6.02,0 -11.15,-2.08 -15.4,-6.25 -4.25,-4.17 -6.38,-9.79 -6.38,-16.86 V 505.1 h -8.46 v -11.36 h 8.46 v -21.09 h 14.14 v 21.09 h 17.68 v 11.36 h -17.68 z"
   id="path155"
   inkscape:connector-curvature="0"
   style="fill:#66cc33" />
</g>
<g
   class="st0"
   id="g161"
   style="enable-background:new"
   transform="translate(-18.555773,-459.94577)">
	<path
   class="st1"
   d="m 1268.57,533.52 h -52.65 c 0.33,4.88 2.57,8.82 6.69,11.8 4.12,2.99 8.84,4.48 14.14,4.48 8.42,0 14.81,-2.65 19.19,-7.95 l 8.08,8.84 c -7.24,7.49 -16.67,11.24 -28.28,11.24 -9.43,0 -17.45,-3.13 -24.05,-9.41 -6.61,-6.27 -9.91,-14.69 -9.91,-25.25 0,-10.56 3.37,-18.96 10.1,-25.19 6.73,-6.23 14.67,-9.34 23.8,-9.34 9.13,0 16.9,2.76 23.29,8.27 6.4,5.51 9.6,13.11 9.6,22.79 z m -52.65,-11.11 h 38.51 c 0,-5.64 -1.77,-9.98 -5.3,-13.01 -3.54,-3.03 -7.89,-4.55 -13.07,-4.55 -5.18,0 -9.83,1.58 -13.95,4.73 -4.13,3.17 -6.19,7.44 -6.19,12.83 z"
   id="path159"
   inkscape:connector-curvature="0"
   style="fill:#66cc33" />
</g>
<path
   class="st1"
   d="m 62.624227,126.67423 c -34.98,-0.4 -63.02000008,-29.070003 -62.62000008,-64.050003 0.4,-34.98 29.07000008,-63.02000008 64.05000008,-62.62000008 34.85,0.39 62.840003,28.87000008 62.630003,63.72000008 -0.25,35.02 -28.840003,63.200003 -63.860003,62.950003 -0.06,0 -0.13,0 -0.2,0 z"
   id="path163"
   inkscape:connector-curvature="0"
   style="fill:#66cc33" />
<g
   id="g183"
   transform="translate(-18.555773,-459.94577)">
	<defs
   id="defs166">
		<path
   id="SVGID_1_"
   d="m 81.18,586.62 c -34.98,-0.4 -63.02,-29.07 -62.62,-64.05 0.4,-34.98 29.07,-63.02 64.05,-62.62 34.85,0.39 62.84,28.87 62.63,63.72 -0.25,35.02 -28.84,63.2 -63.86,62.95 -0.06,0 -0.13,0 -0.2,0 z"
   inkscape:connector-curvature="0" />
	</defs>
	<clipPath
   id="SVGID_2_">
		<use
   xlink:href="#SVGID_1_"
   style="overflow:visible"
   id="use168"
   x="0"
   y="0"
   width="100%"
   height="100%" />
	</clipPath>
	<g
   class="st2"
   clip-path="url(#SVGID_2_)"
   id="g181">
		<defs
   id="defs172">
			<polygon
   id="SVGID_3_"
   points="79.22,534.45 56.77,510.13 48.01,518.21 78.24,550.96 78.54,550.69 78.67,550.83 145.25,489.39 137.34,480.82 " />
		</defs>
		<use
   xlink:href="#SVGID_3_"
   style="overflow:visible;fill:#ffffff"
   id="use174"
   x="0"
   y="0"
   width="100%"
   height="100%" />
		<clipPath
   id="SVGID_4_">
			<use
   xlink:href="#SVGID_3_"
   style="overflow:visible"
   id="use176"
   x="0"
   y="0"
   width="100%"
   height="100%" />
		</clipPath>
		<path
   class="st3"
   d="m 81.18,586.62 c -34.98,-0.4 -63.02,-29.07 -62.62,-64.05 0.4,-34.98 29.07,-63.02 64.05,-62.62 34.85,0.39 62.84,28.87 62.63,63.72 -0.25,35.02 -28.84,63.2 -63.86,62.95 -0.06,0 -0.13,0 -0.2,0 z"
   clip-path="url(#SVGID_4_)"
   id="path179"
   inkscape:connector-curvature="0"
   style="fill:#ffffff" />
	</g>
</g>
</svg>