<svg xmlns="http://www.w3.org/2000/svg" width="179" height="64" viewBox="0 0 179 64">
    <g>
        <g>
            <path fill="#004587"
                  d="M28.39 0C51.769.868 70 7.57 70 15.709c0 8.727-21 15.803-46.762 15.803-8.46 0-16.394-.76-23.238-2.091 3.596.256 7.343.392 11.19.392 27.461 0 49.722-6.886 49.722-15.38C60.912 7.811 47.375 2.165 28.391 0"/>
        </g>
        <g>
            <path fill="#0070ba"
                  d="M24.622 2.11C42.906 2.79 57.13 8 57.13 14.396c0 6.826-16.357 12.358-36.536 12.358-6.593 0-12.82-.595-18.173-1.635 2.813.2 5.743.306 8.752.306 21.476 0 38.884-5.425 38.884-12.027 0-5.18-10.586-9.594-25.434-11.288"/>
        </g>
        <g clip-path="url(#clip-6641D2DB-9CB2-4929-BBAA-C7565811B91F)">
            <path fill="#0070ba"
                  d="M170.437 50.42h2.425v5.436h.036c.616-.856 1.665-1.461 2.932-1.461 2.17 0 3.17 1.533 3.17 3.605v5.789h-2.428v-4.902c0-1.124-.018-2.639-1.572-2.639-1.758 0-2.138 1.873-2.138 3.048v4.493h-2.425zm-1.931 6.167c-.435-.196-.904-.339-1.646-.339-1.503 0-2.462 1.177-2.462 2.906 0 1.694.814 2.994 2.515 2.994.689 0 1.448-.249 1.864-.427l.109 1.977c-.706.214-1.429.302-2.426.302-3.058 0-4.595-2-4.595-4.846 0-2.656 1.591-4.76 4.505-4.76.977 0 1.684.108 2.354.304zm-10.893 4.706h2.534v2.496h-2.534zm-2.462 1.978c-.887.482-1.9.729-3.203.729-3.076 0-4.868-1.745-4.868-4.757 0-2.656 1.43-4.848 4.326-4.848 3.456 0 4.434 2.335 4.434 5.543h-6.444c.11 1.48 1.159 2.317 2.66 2.317 1.178 0 2.19-.427 3.095-.927zm-1.628-4.972c-.072-1.158-.616-2.157-1.972-2.157-1.358 0-2.045.926-2.155 2.157zm-7.672-1.712c-.433-.196-.905-.339-1.647-.339-1.502 0-2.461 1.177-2.461 2.906 0 1.694.814 2.994 2.517 2.994.686 0 1.447-.249 1.862-.427l.11 1.977c-.706.214-1.43.302-2.425.302-3.06 0-4.598-2-4.598-4.846 0-2.656 1.593-4.76 4.507-4.76.977 0 1.682.108 2.352.304zm-16.998-1.978h2.299v1.247h.036c.76-1.052 1.812-1.461 3.058-1.461 2.209 0 3.168 1.533 3.168 3.605v5.789H135v-4.902c0-1.124 0-2.639-1.586-2.639-1.755 0-2.135 1.873-2.135 3.048v4.493h-2.426zm-8.237 6.524c0 .783.669 1.122 1.54 1.122.74 0 1.32-.32 1.7-.82.398-.516.506-1.177.506-1.89h-1.049c-1.086 0-2.697.18-2.697 1.588zm-1.304-6.043c.942-.427 2.21-.695 3.24-.695 2.842 0 4.018 1.158 4.018 3.868v1.176c0 .927.019 1.623.036 2.3.019.694.055 1.336.108 2.05h-2.134c-.092-.483-.092-1.089-.11-1.373h-.036c-.56 1.015-1.773 1.584-2.876 1.584-1.648 0-3.26-1-3.26-2.725 0-1.372.702-2.174 1.594-2.62.923-.446 2.108-.534 3.108-.534h1.362c0-1.48-.67-1.98-2.099-1.98-1.032 0-2.064.393-2.878 1zm-6.743 1.266h-1.791v-1.747h1.791v-1.836L115 52v2.609h2.148v1.747H115v4.277c0 .785.212 1.515 1.136 1.515.433 0 .864-.09 1.103-.249l.072 1.89c-.506.142-1.067.211-1.792.211-1.9 0-2.95-1.156-2.95-3zm-3.199.178c-.742-.25-1.285-.392-2.17-.392-.653 0-1.431.232-1.431 1.015 0 1.462 4.231.535 4.231 3.843 0 2.146-2 3-3.924 3-.922 0-1.864-.159-2.75-.39l.144-1.96c.76.35 1.53.605 2.39.605.614 0 1.592-.255 1.592-1.122 0-1.801-4.217-.57-4.217-3.886 0-1.978 1.765-2.852 3.656-2.852 1.109 0 1.882.178 2.642.339zm-10.49-5.882h2.425v2.281H98.88zm0 3.957h2.425v9.18H98.88zm-10.359 7.22h1.412c2.118 0 4.163-1.552 4.163-4.262 0-2.709-2.045-4.26-4.163-4.26H88.52zM86 51.347h3.444c3.873 0 7.293 1.283 7.293 6.219 0 4.938-3.42 6.222-7.293 6.222H86zm-5-.696h2.387v2.281H81zm0 3.957h2.387v9.18H81zm-11 0h2.333v1.247h.037c.76-1.052 1.79-1.461 3.058-1.461 2.208 0 3.167 1.533 3.167 3.605v5.789H76.17v-4.902c0-1.124-.017-2.639-1.574-2.639-1.756 0-2.137 1.873-2.137 3.048v4.493H70zm-12.8-3.261h2.533v7.182c0 2.121.688 3.47 2.624 3.47C64.294 62 65 60.651 65 58.53v-7.182h2.516v7.948c0 3.333-1.919 4.704-5.159 4.704-3.238 0-5.157-1.371-5.157-4.704z"/>
        </g>
        <g>
            <path fill="#004587"
                  d="M135.25 30.92h2.424v5.436h.036c.617-.891 1.665-1.461 2.932-1.461 2.208 0 3.168 1.533 3.168 3.6v5.792h-2.425v-4.901c0-1.123-.019-2.638-1.576-2.638-1.755 0-2.135 1.871-2.135 3.047v4.492h-2.425zm-1.932 6.167c-.434-.197-.905-.339-1.646-.339-1.503 0-2.462 1.176-2.462 2.905 0 1.694.79 2.995 2.515 2.995.688 0 1.448-.25 1.864-.428l.11 1.978c-.699.214-1.43.303-2.426.303-3.058 0-4.597-2.05-4.597-4.848 0-2.653 1.593-4.758 4.506-4.758.979 0 1.684.105 2.354.303zm-10.893 4.706H125v2.494h-2.575zM117.56 31.15H120v2.282h-2.44zm0 3.956H120v9.18h-2.44zm-10.927 0h2.3v1.25H109c.727-1.053 1.76-1.462 3-1.462 2.234 0 3.194 1.533 3.194 3.6v5.792h-2.425v-4.901c0-1.123-.019-2.638-1.575-2.638-1.756 0-2.136 1.871-2.136 3.047v4.492h-2.425zm-12.834-3.26h2.534V39c0 2.15.667 3.54 2.667 3.54 1.893 0 2.58-1.39 2.58-3.54v-7.153h2.534v7.948c0 3.334-1.919 4.706-5.114 4.706-3.283 0-5.2-1.372-5.2-4.706zm-10.982 3.26h2.298v1.25h.036c.761-1.053 1.792-1.462 3.06-1.462 2.208 0 3.166 1.533 3.166 3.6v5.792H89v-4.901c0-1.123-.066-2.638-1.623-2.638-1.755 0-2.134 1.871-2.134 3.047v4.492h-2.426zm-6.817 0h2.162v2.087h.036c.11-.856 1.104-2.3 2.552-2.3.25 0 .489 0 .742.106v2.372c-.218-.125-.651-.196-1.086-.196-1.973 0-1.973 2.424-1.973 3.743v3.368H76zm-2.533 8.663c-.886.481-1.9.731-3.203.731-3.075 0-4.868-1.746-4.868-4.758 0-2.656 1.43-4.848 4.326-4.848 3.456 0 4.434 2.334 4.434 5.543h-6.443c.11 1.479 1.157 2.317 2.66 2.317 1.177 0 2.19-.429 3.094-.927zm-1.629-4.972c-.072-1.16-.615-2.157-1.972-2.157s-2.044.927-2.153 2.157zM57.21 31.847h7.023v1.96h-4.49v3.066H64v1.96h-4.257v5.454H57.21z"/>
        </g>
    </g>
</svg>
