<svg id="Livello_1" data-name="Livello 1" xmlns="http://www.w3.org/2000/svg" viewBox="0 0 438.4 158.29"><defs><style>.cls-1,.cls-2{fill:#07476a;}.cls-1,.cls-3{fill-rule:evenodd;}.cls-3{fill:#fff;}</style></defs><path class="cls-1" d="M3.25,2.87v32a.43.43,0,0,0,.06.22l22.83,36.2a.43.43,0,0,0,.55.15L111.45,30a.43.43,0,0,0,.24-.39V2.87a.42.42,0,0,0-.43-.42H3.67A.42.42,0,0,0,3.25,2.87ZM7.84,30.31V7.46A.42.42,0,0,1,8.26,7h97a.42.42,0,0,1,.43.42v17a.43.43,0,0,1-.4.42l-97,5.88A.42.42,0,0,1,7.84,30.31Z"/><path class="cls-1" d="M111.69,33.12v122.1a.43.43,0,0,1-.43.43H50.1a.43.43,0,0,1-.4-.59c1.9-4.55,3.64-8.85,5-12.28a.42.42,0,0,1,.55-.23,3.39,3.39,0,0,0,2.64-6.22,3.79,3.79,0,0,0-.75-.3,1.32,1.32,0,0,0,.1-.53l2.15-1.11-.47-.17a22.61,22.61,0,0,0,2.35-.41c2.81-.72,5.88-2.82,8.12-4.52,11.47-8.72,7.49-23.8,8-36.07A74.65,74.65,0,0,1,80,77.52c.56-2.2,3-9.4,4.23-11.51a.37.37,0,0,1,.25-.18l1.67-.45a.42.42,0,0,0,.21-.13l1.24-1.45a.57.57,0,0,0,.08-.13c.52-1.36.15-4.23-1.07-5.37a.42.42,0,0,0-.66.12L62,103.23a.42.42,0,0,0,.1.52,5,5,0,0,1-4.54,8.48.41.41,0,0,0-.48.21l-8.93,16.77a.83.83,0,0,1-1.22.27h0a.82.82,0,0,1-.24-1l9-16.76a.43.43,0,0,0-.11-.52,5,5,0,0,1,4.54-8.49.44.44,0,0,0,.49-.2l23.9-44.81a.43.43,0,0,0-.27-.62c-1.63-.38-4.2.91-5,2.08a.42.42,0,0,0-.06.14l-.53,1.85a.42.42,0,0,0,0,.25L79.13,63a.37.37,0,0,1,0,.31c-1.05,2.25-5.7,8.22-7.2,9.92a74.16,74.16,0,0,1-11.57,10.9c-9.92,7.21-24.65,12.26-25.51,26.67-.17,2.82-.22,6.55.75,9.29.58,1.62,1.56,3.12,2.12,4.78l.63.42v.11a1.46,1.46,0,0,0-.38.39,3.51,3.51,0,0,0-.67-.47A3.39,3.39,0,0,0,33.62,131a.43.43,0,0,1,.11.58c-4.29,6.16-10.74,15.82-15.81,24a.28.28,0,0,1-.24.13H3.53a.28.28,0,0,1-.28-.28V41.78A.42.42,0,0,1,4,41.55l20.77,33a.43.43,0,0,0,.55.15l85.73-41.91A.42.42,0,0,1,111.69,33.12Z"/><path class="cls-1" d="M177.65,67.05q0,7.52-3.37,9.74C172,78.26,167.14,79,159.62,79c-9.31,0-14.79-1.36-16.49-4.09s-2.55-11.55-2.55-26.44c0-11,.93-17.68,2.85-19.93s7.58-3.36,17-3.36c7,0,11.56.76,13.54,2.22s3,4.82,3,10.08v2.06h15.17l0-1.84q0-15.33-5.77-20.5C182.47,13.76,174.84,12,163.41,12q-23.55,0-31,6.16T125,43.81q0,33.14,5.45,40.74t29.22,7.6q20.91,0,27-4.81t6.11-21.19v-2.7h-15.2Z"/><rect class="cls-2" x="207.88" y="12.01" width="15.55" height="80.14"/><path class="cls-1" d="M301.07,32.91q0-12.36-6.26-16.63T270.57,12q-19,0-25.33,4.6T238.9,35c0,9,1.74,14.89,5.25,17.62s11.55,4.47,24.13,5.2l8.34.5c4.68.27,7.75,1,9.17,2.29s2.12,3.78,2.12,7.6c0,5.15-.93,8.43-2.76,9.86s-6.08,2.14-12.75,2.14q-12.84,0-15.7-1.78t-2.87-9.76L253.77,67H239.06l0,2.82q0,13.49,6.17,17.88t25,4.41q20.89,0,27-4.58t6.15-20.3c0-8.49-1.75-14.1-5.27-16.79S287,46.13,275,45.45q-15.18-.8-17.88-2.3t-2.69-8.95c0-4.19,1.1-7,3.32-8.26s6.94-2,14.15-2c6.13,0,10,.6,11.65,1.76s2.64,4,3,8.53c0,.38,0,.92.11,1.67h14.78Z"/><rect class="cls-2" x="319.41" y="12.01" width="15.54" height="80.14"/><path class="cls-1" d="M371.23,65.84l13.54-42.06,13.8,42.06Zm35.91,26.31h15.71L395.93,12H373.24L346.72,92.15h16l5-15.55h34.38Z"/><path class="cls-3" d="M105.67,25.28V31a.43.43,0,0,1-.43.43H7.84v-.67l97.38-5.9A.42.42,0,0,1,105.67,25.28Z"/><path class="cls-1" d="M138,122.05a7,7,0,0,1-5-1.83,6.13,6.13,0,0,1-1.95-4.71,6.22,6.22,0,0,1,2-4.72,7.17,7.17,0,0,1,5.09-1.89,17,17,0,0,1,6.07,1.19V107.7a18.58,18.58,0,0,0-6.11-1.19,9.29,9.29,0,0,0-6.72,2.62,8.5,8.5,0,0,0-2.71,6.42,8.78,8.78,0,0,0,1.18,4.46,8.56,8.56,0,0,0,3.17,3.26,9.55,9.55,0,0,0,4.91,1.18,9.22,9.22,0,0,0,6.28-2.4v-2.39A9.82,9.82,0,0,1,138,122.05Z"/><path class="cls-1" d="M155.08,115.9a3.45,3.45,0,0,1,1,2.59,3.54,3.54,0,0,1-1,2.58,3.87,3.87,0,0,1-5.15,0,3.39,3.39,0,0,1-1-2.57,3.58,3.58,0,0,1,1-2.6,3.37,3.37,0,0,1,2.53-1A3.63,3.63,0,0,1,155.08,115.9Zm-6.81-1.69a6.21,6.21,0,0,0,0,8.53,5.68,5.68,0,0,0,4.22,1.71,6,6,0,0,0,4.34-1.67,5.64,5.64,0,0,0,1.71-4.22,6,6,0,0,0-1.7-4.34,5.63,5.63,0,0,0-4.23-1.74A5.79,5.79,0,0,0,148.27,114.21Z"/><path class="cls-1" d="M160.9,112.48v12h2.41v-8.38a4.65,4.65,0,0,1,3.22-1.19,2.69,2.69,0,0,1,2.11.75,3.72,3.72,0,0,1,.64,2.44v6.38h2.39v-6.72a6.64,6.64,0,0,0-.56-3.12,4,4,0,0,0-1.59-1.55,4.89,4.89,0,0,0-2.28-.58,6.76,6.76,0,0,0-3.93,1.2v-1.2Z"/><path class="cls-1" d="M175.91,124.22a5.73,5.73,0,0,0,1.68.23,3.79,3.79,0,0,0,2.62-.92,3,3,0,0,0,1-2.34q0-2-2.81-3.62l-.73-.47a3.79,3.79,0,0,1-1-.8.92.92,0,0,1-.21-.62.7.7,0,0,1,.39-.58,2.24,2.24,0,0,1,1.09-.22,7.08,7.08,0,0,1,3.31,1.19v-2.52a6.84,6.84,0,0,0-3.48-1.07,4.08,4.08,0,0,0-2.67.84,2.68,2.68,0,0,0-1,2.18,3.28,3.28,0,0,0,.61,1.9,9.47,9.47,0,0,0,2.59,2.09,14.6,14.6,0,0,1,1.29.92,1,1,0,0,1,.3.67.86.86,0,0,1-.47.69,2,2,0,0,1-1.06.28,4.45,4.45,0,0,1-1.52-.31,8.17,8.17,0,0,1-1.74-.89v2.52A10.26,10.26,0,0,0,175.91,124.22Z"/><path class="cls-1" d="M192.14,115.9a3.75,3.75,0,0,1,0,5.17,3.41,3.41,0,0,1-2.55,1,3.49,3.49,0,0,1-2.6-1,3.45,3.45,0,0,1-1-2.57,3.57,3.57,0,0,1,1-2.6,3.37,3.37,0,0,1,2.53-1A3.66,3.66,0,0,1,192.14,115.9Zm-6.82-1.69a5.87,5.87,0,0,0-1.69,4.28,5.78,5.78,0,0,0,1.67,4.25,5.67,5.67,0,0,0,4.22,1.71,6,6,0,0,0,4.34-1.67,5.65,5.65,0,0,0,1.72-4.22,6,6,0,0,0-1.7-4.34,5.65,5.65,0,0,0-4.24-1.74A5.85,5.85,0,0,0,185.32,114.21Z"/><path class="cls-1" d="M198,112.48v12h2.39v-6a4.17,4.17,0,0,1,.78-2.49,2.29,2.29,0,0,1,1.88-1.06,3.26,3.26,0,0,1,2.14,1.19l1.18-2.16a3.88,3.88,0,0,0-2.63-1.43c-1.09,0-2.15,1-3.22,2.86l-.13.21v-3.07Z"/><polygon class="cls-1" points="206.34 114.88 211.85 114.88 206.34 124.45 215.9 124.45 215.9 122.05 210.39 122.05 215.9 112.48 206.34 112.48 206.34 114.88"/><path class="cls-1" d="M218.29,124.45h2.39v-12h-2.39Zm.36-15.18a1.14,1.14,0,0,0,0,1.66,1,1,0,0,0,.82.36,1.13,1.13,0,0,0,.86-.36,1.17,1.17,0,0,0,.35-.84,1.13,1.13,0,0,0-.35-.83,1.2,1.2,0,0,0-.86-.36A1.09,1.09,0,0,0,218.65,109.27Z"/><path class="cls-1" d="M232.79,115.9a3.45,3.45,0,0,1,1,2.59,3.54,3.54,0,0,1-1,2.58,3.44,3.44,0,0,1-2.56,1,3.56,3.56,0,0,1-2.61-1,3.49,3.49,0,0,1-1-2.57,3.61,3.61,0,0,1,1-2.6,3.4,3.4,0,0,1,2.55-1A3.66,3.66,0,0,1,232.79,115.9ZM226,114.21a5.84,5.84,0,0,0-1.7,4.28,5.72,5.72,0,0,0,1.69,4.25,5.62,5.62,0,0,0,4.22,1.71,5.92,5.92,0,0,0,4.32-1.67,5.62,5.62,0,0,0,1.72-4.22,6,6,0,0,0-1.69-4.34,5.69,5.69,0,0,0-4.25-1.74A5.84,5.84,0,0,0,226,114.21Z"/><rect class="cls-2" x="245.79" y="106.51" width="2.39" height="17.94"/><path class="cls-1" d="M251.76,112.48v12h2.39v-8.38a4.71,4.71,0,0,1,3.24-1.19,2.69,2.69,0,0,1,2.11.75,3.72,3.72,0,0,1,.63,2.44v6.38h2.39v-6.72a6.66,6.66,0,0,0-.55-3.12,4,4,0,0,0-1.59-1.55,4.86,4.86,0,0,0-2.28-.58,6.87,6.87,0,0,0-4,1.2v-1.2Z"/><path class="cls-1" d="M263.72,114.88h2.39v5.06a11.59,11.59,0,0,0,.13,2.1,3.15,3.15,0,0,0,.32.89,2.27,2.27,0,0,0,.51.61,3.32,3.32,0,0,0,2.39.91,5.82,5.82,0,0,0,2.63-.62v-1.78h-2.2c-.94,0-1.39-.61-1.39-1.87v-5.3h3.59v-2.4H268.5v-2.39l-4.78,4.55Z"/><path class="cls-1" d="M276.52,115.51a2.33,2.33,0,0,1,1.66-.63,2.14,2.14,0,0,1,1.6.63,2.73,2.73,0,0,1,.68,1.76h-4.78A3.07,3.07,0,0,1,276.52,115.51Zm6.33,2.68a6.37,6.37,0,0,0-1.27-4.15,4.13,4.13,0,0,0-3.36-1.56,4.43,4.43,0,0,0-3.56,1.66,6.48,6.48,0,0,0-1.37,4.29,6.9,6.9,0,0,0,.65,3.1,5.51,5.51,0,0,0,1.78,2.13,4.84,4.84,0,0,0,2.89.79,7.6,7.6,0,0,0,2.29-.31,7.19,7.19,0,0,0,2-1v-2.27a6.38,6.38,0,0,1-3.77,1.2,3.17,3.17,0,0,1-2.42-1,3.85,3.85,0,0,1-1-2.62h7.17Z"/><path class="cls-1" d="M285.25,112.48v12h2.39v-6a4.16,4.16,0,0,1,.77-2.49,2.29,2.29,0,0,1,1.88-1.06,3.24,3.24,0,0,1,2.14,1.19l1.18-2.16a3.88,3.88,0,0,0-2.64-1.43c-1.07,0-2.14,1-3.2,2.86l-.13.21v-3.07Z"/><path class="cls-1" d="M305.57,124.45v-12h-2.39v8a4.1,4.1,0,0,1-3.24,1.54,2.75,2.75,0,0,1-2.14-.68,3.79,3.79,0,0,1-.6-2.49v-6.4h-2.39v6.73a7.17,7.17,0,0,0,.51,3.18,3.81,3.81,0,0,0,1.59,1.51,4.81,4.81,0,0,0,2.29.55,4.49,4.49,0,0,0,2.09-.56,6.24,6.24,0,0,0,1.89-1.62v2.18Z"/><path class="cls-1" d="M308,112.48v12h2.39v-8.38a4.65,4.65,0,0,1,3.23-1.19,2.69,2.69,0,0,1,2.11.75,3.78,3.78,0,0,1,.64,2.44v6.38h2.39v-6.72a6.64,6.64,0,0,0-.56-3.12,4,4,0,0,0-1.59-1.55,4.85,4.85,0,0,0-2.27-.58,6.83,6.83,0,0,0-3.95,1.2v-1.2Z"/><path class="cls-1" d="M321.11,124.45h2.39v-12h-2.39Zm.36-15.18a1.14,1.14,0,0,0,0,1.66,1,1,0,0,0,.81.36,1.11,1.11,0,0,0,.86-.36,1.14,1.14,0,0,0,.36-.84,1.1,1.1,0,0,0-.36-.83,1.19,1.19,0,0,0-.86-.36A1.07,1.07,0,0,0,321.47,109.27Z"/><polygon class="cls-1" points="331.27 119.72 328.44 112.48 325.89 112.48 330.6 124.45 331.93 124.45 336.65 112.48 334.13 112.48 331.27 119.72"/><path class="cls-1" d="M341.07,115.51a2.34,2.34,0,0,1,1.67-.63,2.18,2.18,0,0,1,1.61.63,2.78,2.78,0,0,1,.66,1.76h-4.78A3.27,3.27,0,0,1,341.07,115.51Zm6.34,2.68a6.42,6.42,0,0,0-1.27-4.15,4.13,4.13,0,0,0-3.36-1.56,4.48,4.48,0,0,0-3.57,1.66,6.53,6.53,0,0,0-1.37,4.29,6.77,6.77,0,0,0,.66,3.1,5.48,5.48,0,0,0,1.77,2.13,4.86,4.86,0,0,0,2.89.79,7.6,7.6,0,0,0,2.29-.31,7.1,7.1,0,0,0,2-1v-2.27a6.4,6.4,0,0,1-3.77,1.2,3.14,3.14,0,0,1-2.41-1,3.77,3.77,0,0,1-1-2.62h7.18Z"/><path class="cls-1" d="M349.8,112.48v12h2.39v-6a4,4,0,0,1,.79-2.49,2.25,2.25,0,0,1,1.86-1.06,3.23,3.23,0,0,1,2.15,1.19l1.17-2.16a3.84,3.84,0,0,0-2.62-1.43c-1.09,0-2.16,1-3.22,2.86l-.13.21v-3.07Z"/><path class="cls-1" d="M361.21,124.22a5.76,5.76,0,0,0,1.69.23,3.76,3.76,0,0,0,2.61-.92,3,3,0,0,0,1-2.34q0-2-2.8-3.62l-.72-.47a3.48,3.48,0,0,1-1-.8.93.93,0,0,1-.22-.62.68.68,0,0,1,.39-.58,2.27,2.27,0,0,1,1.09-.22,7,7,0,0,1,3.3,1.19v-2.52a6.78,6.78,0,0,0-3.46-1.07,4.13,4.13,0,0,0-2.68.84,2.68,2.68,0,0,0-1,2.18,3.15,3.15,0,0,0,.62,1.9,9.39,9.39,0,0,0,2.58,2.09,11.53,11.53,0,0,1,1.28.92.91.91,0,0,1,.3.67.84.84,0,0,1-.46.69,1.94,1.94,0,0,1-1.07.28,4.4,4.4,0,0,1-1.5-.31,8.49,8.49,0,0,1-1.75-.89v2.52A10,10,0,0,0,361.21,124.22Z"/><path class="cls-1" d="M368.92,124.45h2.39v-12h-2.39Zm.36-15.18a1.14,1.14,0,0,0,0,1.66,1.06,1.06,0,0,0,.83.36,1.16,1.16,0,0,0,.86-.36,1.2,1.2,0,0,0,.34-.84,1.16,1.16,0,0,0-.34-.83,1.24,1.24,0,0,0-.86-.36A1.11,1.11,0,0,0,369.28,109.27Z"/><path class="cls-1" d="M373.7,114.88h2.4v5.06a10.71,10.71,0,0,0,.13,2.1,3.15,3.15,0,0,0,.32.89,2.43,2.43,0,0,0,.5.61,3.32,3.32,0,0,0,2.39.91,5.93,5.93,0,0,0,2.65-.62v-1.78h-2.22c-.93,0-1.38-.61-1.38-1.87v-5.3h3.6v-2.4h-3.6v-2.39l-4.79,4.55Z"/><path class="cls-1" d="M387.27,123.24a1.44,1.44,0,0,1-1.16-.5,1.84,1.84,0,0,1-.44-1.29,1.75,1.75,0,0,1,.47-1.28,5.07,5.07,0,0,1,1.62-1l1.5-.66v3.34C388.64,122.76,388,123.24,387.27,123.24Zm4.28-7.78a3.5,3.5,0,0,0-.39-1.09,4.23,4.23,0,0,0-.71-.86c-.3-.67-1.36-1-3.16-1a5.46,5.46,0,0,0-4,1.39v2.2a7,7,0,0,1,3.8-1.19c1.45,0,2.18.62,2.18,1.85v.54l-2.95,1a5.21,5.21,0,0,0-2.25,1.38,2.81,2.81,0,0,0-.78,2,2.65,2.65,0,0,0,.8,2,2.71,2.71,0,0,0,2,.81,4.6,4.6,0,0,0,3.15-1.37,1.43,1.43,0,0,0,1.56,1.37,3.21,3.21,0,0,0,.88-.1c.28-.08.65-.21,1.14-.39v-.72h-.92c-.19,0-.27-.2-.27-.61v-5.11A16.46,16.46,0,0,0,391.55,115.46Z"/><path class="cls-1" d="M394,112.48v12h2.39v-6a4.1,4.1,0,0,1,.78-2.49,2.26,2.26,0,0,1,1.87-1.06,3.21,3.21,0,0,1,2.14,1.19l1.19-2.16a3.9,3.9,0,0,0-2.65-1.43c-1.07,0-2.13,1-3.2,2.86l-.13.21v-3.07Z"/><path class="cls-1" d="M403.6,124.45H406v-12H403.6Zm.35-15.18a1.16,1.16,0,0,0,0,1.66,1.07,1.07,0,0,0,.82.36,1.13,1.13,0,0,0,.86-.36,1.14,1.14,0,0,0,.36-.84,1.1,1.1,0,0,0-.36-.83,1.2,1.2,0,0,0-.86-.36A1.12,1.12,0,0,0,404,109.27Z"/><path class="cls-1" d="M418.09,115.9a3.46,3.46,0,0,1,1.05,2.59,3.5,3.5,0,0,1-1,2.58,3.43,3.43,0,0,1-2.56,1,3.4,3.4,0,0,1-3.6-3.55,3.57,3.57,0,0,1,1-2.6,3.4,3.4,0,0,1,2.54-1A3.64,3.64,0,0,1,418.09,115.9Zm-6.81-1.69a6.24,6.24,0,0,0,0,8.53,5.69,5.69,0,0,0,4.23,1.71,6,6,0,0,0,4.33-1.67,5.65,5.65,0,0,0,1.72-4.22,6,6,0,0,0-1.69-4.34,5.69,5.69,0,0,0-4.25-1.74A5.81,5.81,0,0,0,411.28,114.21Z"/><path class="cls-1" d="M135.8,144.76a2.21,2.21,0,0,1-.76,1.73,2.72,2.72,0,0,1-1.89.69c-1.71,0-3.21-.91-4.52-2.71v3.6a7.59,7.59,0,0,0,4.61,1.5,4.93,4.93,0,0,0,3.58-1.32,4.48,4.48,0,0,0,1.37-3.38,5.5,5.5,0,0,0-3.06-4.78L133.58,139a5.56,5.56,0,0,1-2.06-1.41,2.63,2.63,0,0,1-.5-1.52,1.72,1.72,0,0,1,.82-1.48A3.71,3.71,0,0,1,134,134a7,7,0,0,1,4.23,1.5v-2.39a6.68,6.68,0,0,0-4.18-1.5,5.71,5.71,0,0,0-3.89,1.29,4.15,4.15,0,0,0-1.49,3.3,4.08,4.08,0,0,0,.71,2.42,8.62,8.62,0,0,0,2.14,2.05l2.12,1.09C135.06,142.67,135.8,143.66,135.8,144.76Z"/><path class="cls-1" d="M140.58,149.57H143v-12h-2.39Zm.36-15.19a1.2,1.2,0,0,0-.36.83,1.15,1.15,0,0,0,.36.84,1,1,0,0,0,.82.35,1.17,1.17,0,0,0,.87-.35,1.2,1.2,0,0,0,.34-.84,1.19,1.19,0,0,0-.34-.84,1.26,1.26,0,0,0-.87-.36A1.1,1.1,0,0,0,140.94,134.38Z"/><path class="cls-1" d="M148.41,149.34a6.11,6.11,0,0,0,1.69.23,3.68,3.68,0,0,0,2.6-.92,3,3,0,0,0,1-2.34q0-2-2.8-3.63l-.73-.47a3.46,3.46,0,0,1-1-.8,1,1,0,0,1-.21-.62.67.67,0,0,1,.39-.57,2.15,2.15,0,0,1,1.09-.23,7.17,7.17,0,0,1,3.3,1.2v-2.53a6.83,6.83,0,0,0-3.47-1.06,4.18,4.18,0,0,0-2.67.84,2.64,2.64,0,0,0-1,2.17,3.2,3.2,0,0,0,.62,1.9,9,9,0,0,0,2.58,2.09,11.53,11.53,0,0,1,1.28.92.94.94,0,0,1,.3.67.86.86,0,0,1-.47.7,1.89,1.89,0,0,1-1.06.29,4.3,4.3,0,0,1-1.51-.33,8.62,8.62,0,0,1-1.74-.88v2.53A11.3,11.3,0,0,0,148.41,149.34Z"/><path class="cls-1" d="M154.93,140h2.39v5.07a10.59,10.59,0,0,0,.13,2.09,3.23,3.23,0,0,0,.32.9,2.9,2.9,0,0,0,.5.62,3.35,3.35,0,0,0,2.39.9,5.91,5.91,0,0,0,2.65-.63v-1.76h-2.22c-.93,0-1.38-.63-1.38-1.88V140h3.6V137.6h-3.6v-2.39l-4.78,4.54Z"/><path class="cls-1" d="M167.73,140.62a2.37,2.37,0,0,1,1.66-.63,2.18,2.18,0,0,1,1.6.63,2.81,2.81,0,0,1,.68,1.76h-4.78A3.1,3.1,0,0,1,167.73,140.62Zm6.33,2.68a6.42,6.42,0,0,0-1.27-4.15,4.16,4.16,0,0,0-3.36-1.55,4.43,4.43,0,0,0-3.57,1.66,6.43,6.43,0,0,0-1.36,4.28,6.84,6.84,0,0,0,.65,3.11,5.49,5.49,0,0,0,1.78,2.13,4.91,4.91,0,0,0,2.89.79,7.83,7.83,0,0,0,2.28-.3,7.74,7.74,0,0,0,2-1V146a6.48,6.48,0,0,1-3.77,1.21,3.16,3.16,0,0,1-2.42-1,3.81,3.81,0,0,1-1-2.61h7.17Z"/><path class="cls-1" d="M188.58,140a2,2,0,0,1,1.63.75,3.44,3.44,0,0,1,.59,2.15v6.68h2.39v-6.93a5.68,5.68,0,0,0-1.09-3.79,3.53,3.53,0,0,0-2.76-1.25c-1.33,0-2.59.84-3.81,2.49-.79-1.65-1.9-2.49-3.35-2.49-1.08,0-2.2.73-3.33,2.16V137.6h-2.4v12h2.4v-8.19a5.24,5.24,0,0,1,1.3-1.07,2.64,2.64,0,0,1,1.25-.32,1.91,1.91,0,0,1,1.71.75,4.59,4.59,0,0,1,.52,2.57v6.26H186v-8.19A3.38,3.38,0,0,1,188.58,140Z"/><path class="cls-1" d="M195.58,149.57H198v-12h-2.39Zm.35-15.19a1.18,1.18,0,0,0-.35.83,1.14,1.14,0,0,0,.35.84,1,1,0,0,0,.82.35,1.12,1.12,0,0,0,.86-.35,1.14,1.14,0,0,0,.36-.84,1.12,1.12,0,0,0-.36-.84,1.2,1.2,0,0,0-.86-.36A1.1,1.1,0,0,0,195.93,134.38Z"/><path class="cls-1" d="M208.73,149.57h2.39v-18h-2.39Z"/><path class="cls-1" d="M214.71,137.6v12h2.39v-8.38a4.71,4.71,0,0,1,3.23-1.2,2.68,2.68,0,0,1,2.11.75,3.81,3.81,0,0,1,.63,2.45v6.38h2.4v-6.72a6.65,6.65,0,0,0-.57-3.12,3.87,3.87,0,0,0-1.59-1.54,4.57,4.57,0,0,0-2.27-.59,6.89,6.89,0,0,0-3.94,1.2v-1.2Z"/><path class="cls-1" d="M226.66,140h2.39v5.07a10.59,10.59,0,0,0,.13,2.09,2.69,2.69,0,0,0,.33.9,2.9,2.9,0,0,0,.5.62,3.32,3.32,0,0,0,2.39.9,5.86,5.86,0,0,0,2.63-.63v-1.76h-2.2c-.93,0-1.39-.63-1.39-1.88V140H235V137.6h-3.59v-2.39l-4.78,4.54Z"/><path class="cls-1" d="M239.46,140.62a2.35,2.35,0,0,1,1.67-.63,2.21,2.21,0,0,1,1.6.63,2.81,2.81,0,0,1,.67,1.76h-4.79A3.24,3.24,0,0,1,239.46,140.62Zm6.33,2.68a6.42,6.42,0,0,0-1.27-4.15,4.15,4.15,0,0,0-3.36-1.55,4.45,4.45,0,0,0-3.57,1.66,6.48,6.48,0,0,0-1.37,4.28,6.84,6.84,0,0,0,.66,3.11,5.56,5.56,0,0,0,1.77,2.13,5,5,0,0,0,2.91.79,7.9,7.9,0,0,0,2.27-.3,7.74,7.74,0,0,0,2-1V146a6.48,6.48,0,0,1-3.77,1.21,3.15,3.15,0,0,1-2.41-1,3.77,3.77,0,0,1-1-2.61h7.18Z"/><path class="cls-1" d="M254.37,150.7c.65.32,1,.69,1,1.12a1.14,1.14,0,0,1-.78,1,6.2,6.2,0,0,1-2.18.33c-2,0-3-.47-3-1.4a1.29,1.29,0,0,1,.69-1.07,2.82,2.82,0,0,1,1.76-.48A5.27,5.27,0,0,1,254.37,150.7Zm-.73-10.18a1.72,1.72,0,0,1,.51,1.29,1.7,1.7,0,0,1-.51,1.26,1.74,1.74,0,0,1-1.28.51,1.8,1.8,0,0,1-1.29-.48,1.76,1.76,0,0,1-.5-1.28,1.81,1.81,0,0,1,.5-1.28,1.73,1.73,0,0,1,1.28-.55A1.76,1.76,0,0,1,253.64,140.52Zm-2.68,5.2a2.55,2.55,0,0,0-1.16.67,1.34,1.34,0,0,0-.43,1c0,.48.42,1,1.28,1.47-2.45.45-3.67,1.46-3.67,3.05a3.08,3.08,0,0,0,1.46,2.65,8.33,8.33,0,0,0,7.84,0,3.07,3.07,0,0,0,1.46-2.64,2.78,2.78,0,0,0-.86-2.09,3.79,3.79,0,0,0-1.14-.76c-.4-.17-1.17-.41-2.25-.73a4.54,4.54,0,0,1-1.34-.54.76.76,0,0,1-.39-.68.85.85,0,0,1,.49-.9,7.64,7.64,0,0,0,2.53-.71,3.58,3.58,0,0,0,1.26-1.3,3.33,3.33,0,0,0,.51-1.74,2.87,2.87,0,0,0-.27-1.26,4.81,4.81,0,0,0-.91-1.23h2.37V137.6h-4.65a5.39,5.39,0,0,0-3.6,1.13,3.93,3.93,0,0,0-1.31,3.11A4,4,0,0,0,251,145.72Z"/><path class="cls-1" d="M258.94,137.6v12h2.39v-6a4.09,4.09,0,0,1,.79-2.49A2.27,2.27,0,0,1,264,140a3.32,3.32,0,0,1,2.15,1.2L267.3,139a3.88,3.88,0,0,0-2.63-1.42c-1.08,0-2.15,1-3.21,2.86l-.13.2V137.6Z"/><path class="cls-1" d="M272.5,148.37a1.42,1.42,0,0,1-1.15-.51,1.88,1.88,0,0,1-.46-1.28,1.77,1.77,0,0,1,.48-1.29,5.23,5.23,0,0,1,1.62-1.06l1.5-.65v3.33C273.87,147.88,273.21,148.37,272.5,148.37Zm4.28-7.79a3.5,3.5,0,0,0-.39-1.09,4,4,0,0,0-.71-.86c-.3-.67-1.37-1-3.16-1a5.5,5.5,0,0,0-4,1.39v2.2a7.12,7.12,0,0,1,3.81-1.2c1.45,0,2.18.62,2.18,1.85v.54l-2.95,1a5.26,5.26,0,0,0-2.25,1.37,2.86,2.86,0,0,0-.79,2,2.62,2.62,0,0,0,.81,2,2.72,2.72,0,0,0,2,.82,4.62,4.62,0,0,0,3.14-1.37,1.44,1.44,0,0,0,1.56,1.37,3.65,3.65,0,0,0,.88-.1,10.4,10.4,0,0,0,1.14-.39v-.71h-.92c-.19,0-.27-.21-.27-.62v-5.12A16.39,16.39,0,0,0,276.78,140.58Z"/><path class="cls-1" d="M278.07,140h2.39v5.07a9.64,9.64,0,0,0,.14,2.09,3,3,0,0,0,.31.9,2.9,2.9,0,0,0,.5.62,3.32,3.32,0,0,0,2.39.9,5.87,5.87,0,0,0,2.64-.63v-1.76h-2.21c-.93,0-1.38-.63-1.38-1.88V140h3.59V137.6h-3.59v-2.39l-4.78,4.54Z"/><path class="cls-1" d="M287.64,149.57H290v-12h-2.39Zm.34-15.19a1.22,1.22,0,0,0-.34.83,1.17,1.17,0,0,0,.34.84,1.08,1.08,0,0,0,.83.35,1.18,1.18,0,0,0,.86-2,1.22,1.22,0,0,0-.86-.36A1.14,1.14,0,0,0,288,134.38Z"/><path class="cls-1" d="M307.3,140.36a3,3,0,0,1,1.35,1.21,3.37,3.37,0,0,1,.5,1.84,3.63,3.63,0,0,1-1,2.71,3.56,3.56,0,0,1-2.66,1.06c-.79,0-1.56,0-2.26-.07V140h1.64A6.6,6.6,0,0,1,307.3,140.36Zm-4.12,15.18V149.1a7.86,7.86,0,0,0,2.5.47,5.6,5.6,0,0,0,4.2-1.71,5.94,5.94,0,0,0,1.66-4.33,5.56,5.56,0,0,0-1.75-4.36,7.11,7.11,0,0,0-4.89-1.57h-4.11v17.94Z"/><path class="cls-1" d="M317.16,140.62a2.4,2.4,0,0,1,1.67-.63,2.22,2.22,0,0,1,1.61.63,2.86,2.86,0,0,1,.67,1.76h-4.78A3.16,3.16,0,0,1,317.16,140.62Zm6.34,2.68a6.42,6.42,0,0,0-1.27-4.15,4.17,4.17,0,0,0-3.37-1.55,4.44,4.44,0,0,0-3.56,1.66,6.43,6.43,0,0,0-1.37,4.28,6.84,6.84,0,0,0,.66,3.11,5.65,5.65,0,0,0,1.77,2.13,5,5,0,0,0,2.9.79,7.87,7.87,0,0,0,2.28-.3,7.74,7.74,0,0,0,2-1V146a6.49,6.49,0,0,1-3.78,1.21,3.11,3.11,0,0,1-2.4-1,3.72,3.72,0,0,1-1-2.61h7.17Z"/><path class="cls-1" d="M325.89,137.6v12h2.39v-6a4.09,4.09,0,0,1,.79-2.49,2.27,2.27,0,0,1,1.86-1.06,3.34,3.34,0,0,1,2.16,1.2l1.17-2.17a3.92,3.92,0,0,0-2.63-1.42c-1.09,0-2.16,1-3.22,2.86l-.13.2V137.6Z"/><rect class="cls-2" x="342.62" y="131.62" width="2.39" height="17.94"/><path class="cls-1" d="M350.36,136.2a4.38,4.38,0,0,0,.63-2.32,3.64,3.64,0,0,0-.34-1.62,1.11,1.11,0,0,0-.92-.64,1,1,0,0,0-.79.54,2.41,2.41,0,0,0-.34,1.27,1.74,1.74,0,0,0,1.2,1.78,2.73,2.73,0,0,1-.3,1.16,3.56,3.56,0,0,1-.9.86v.37A3.3,3.3,0,0,0,350.36,136.2Z"/><path class="cls-1" d="M359.19,142.38l3.16-7,3.12,7Zm-5.81,7.19h2.55l2.16-4.8h8.37l2.32,4.8h2.53l-8.1-17.95h-1.72Z"/><path class="cls-1" d="M377.11,147.18a3.17,3.17,0,0,1-2.48-1,3.52,3.52,0,0,1-.93-2.61,3.71,3.71,0,0,1,.89-2.57,2.77,2.77,0,0,1,2.24-1,4.85,4.85,0,0,1,2.85,1.2V140a8.87,8.87,0,0,0-1.61-1.9,2.44,2.44,0,0,0-1.48-.53,4.86,4.86,0,0,0-3.83,1.66,6.44,6.44,0,0,0-1.45,4.4,6.08,6.08,0,0,0,1.45,4.29,4.94,4.94,0,0,0,3.9,1.62,5.56,5.56,0,0,0,3-1V146A4.25,4.25,0,0,1,377.11,147.18Z"/><path class="cls-1" d="M387.87,147.18a3.21,3.21,0,0,1-2.49-1,3.59,3.59,0,0,1-.9-2.61,3.69,3.69,0,0,1,.87-2.57,2.76,2.76,0,0,1,2.23-1,4.92,4.92,0,0,1,2.87,1.2V140a8.84,8.84,0,0,0-1.62-1.9,2.47,2.47,0,0,0-1.49-.53,4.84,4.84,0,0,0-3.82,1.66,6.48,6.48,0,0,0-1.43,4.4,6.12,6.12,0,0,0,1.43,4.29,4.94,4.94,0,0,0,3.9,1.62,5.62,5.62,0,0,0,3-1V146A4.32,4.32,0,0,1,387.87,147.18Z"/><path class="cls-1" d="M396.07,140.62a2.37,2.37,0,0,1,1.66-.63,2.22,2.22,0,0,1,1.61.63,2.87,2.87,0,0,1,.68,1.76h-4.79A3.24,3.24,0,0,1,396.07,140.62Zm6.34,2.68a6.37,6.37,0,0,0-1.28-4.15,4.15,4.15,0,0,0-3.36-1.55,4.4,4.4,0,0,0-3.56,1.66,6.43,6.43,0,0,0-1.37,4.28,7,7,0,0,0,.65,3.11,5.58,5.58,0,0,0,1.78,2.13,4.91,4.91,0,0,0,2.89.79,6.43,6.43,0,0,0,4.25-1.33V146a6.49,6.49,0,0,1-3.78,1.21,3.19,3.19,0,0,1-2.42-1,3.81,3.81,0,0,1-1-2.61h7.18Z"/><path class="cls-1" d="M406.64,149.34a6.09,6.09,0,0,0,1.68.23,3.71,3.71,0,0,0,2.62-.92,3,3,0,0,0,1-2.34c0-1.31-.93-2.52-2.81-3.63l-.73-.47a3.76,3.76,0,0,1-1-.8.94.94,0,0,1-.2-.62.67.67,0,0,1,.39-.57,2.09,2.09,0,0,1,1.08-.23,7.23,7.23,0,0,1,3.31,1.2v-2.53a6.92,6.92,0,0,0-3.48-1.06,4.11,4.11,0,0,0-2.66.84,2.64,2.64,0,0,0-1,2.17,3.19,3.19,0,0,0,.61,1.9A9.34,9.34,0,0,0,408,144.6a11,11,0,0,1,1.29.92,1,1,0,0,1,.3.67.86.86,0,0,1-.47.7,2,2,0,0,1-1.06.29,4.31,4.31,0,0,1-1.52-.33,8.3,8.3,0,0,1-1.73-.88v2.53A11.26,11.26,0,0,0,406.64,149.34Z"/><path class="cls-1" d="M416.21,149.34a6,6,0,0,0,1.68.23,3.68,3.68,0,0,0,2.61-.92,3,3,0,0,0,1-2.34c0-1.31-.93-2.52-2.81-3.63l-.71-.47a3.79,3.79,0,0,1-1.06-.8,1,1,0,0,1-.2-.62.66.66,0,0,1,.4-.57,2.07,2.07,0,0,1,1.07-.23,7.23,7.23,0,0,1,3.31,1.2v-2.53a6.87,6.87,0,0,0-3.48-1.06,4.17,4.17,0,0,0-2.66.84,2.67,2.67,0,0,0-1,2.17,3.19,3.19,0,0,0,.61,1.9,9.34,9.34,0,0,0,2.58,2.09,11,11,0,0,1,1.29.92,1,1,0,0,1,.3.67.87.87,0,0,1-.46.7,2,2,0,0,1-1.07.29,4.31,4.31,0,0,1-1.52-.33,8.55,8.55,0,0,1-1.73-.88v2.53A10.93,10.93,0,0,0,416.21,149.34Z"/><path class="cls-1" d="M432.43,141a3.42,3.42,0,0,1,1.06,2.58,3.53,3.53,0,0,1-1,2.58,3.47,3.47,0,0,1-2.55,1,3.53,3.53,0,0,1-2.61-1,3.45,3.45,0,0,1-1-2.56,3.55,3.55,0,0,1,1-2.6,3.43,3.43,0,0,1,2.55-1A3.62,3.62,0,0,1,432.43,141Zm-6.81-1.7a5.85,5.85,0,0,0-1.7,4.28,5.74,5.74,0,0,0,1.69,4.26,5.66,5.66,0,0,0,4.22,1.71,6,6,0,0,0,4.33-1.67,5.69,5.69,0,0,0,1.72-4.23,6,6,0,0,0-1.7-4.34,5.74,5.74,0,0,0-4.24-1.73A5.9,5.9,0,0,0,425.62,139.32Z"/><path class="cls-3" d="M114.15,27.46v1a.4.4,0,0,1-.24.37l-2.21,1.09-85,41.53a.43.43,0,0,1-.55-.15L3.25,35l-.48-.77.48,0,45.33-2.74L105.67,28l6-.36Z"/><path class="cls-1" d="M115.47,24.7l0,3.1a.4.4,0,0,1-.24.37l-1,.52-2.45,1.2-85,41.53a.43.43,0,0,1-.55-.15L3.25,35l-.48-.77L1.24,31.79a.42.42,0,0,1,.34-.65L3.25,31l4.59-.28,97.83-5.93,6-.36,3.33-.2A.42.42,0,0,1,115.47,24.7Z"/></svg>