<?xml version="1.0" encoding="UTF-8" standalone="no"?>
<!-- Created with Inkscape (http://www.inkscape.org/) -->

<svg
   xmlns:dc="http://purl.org/dc/elements/1.1/"
   xmlns:cc="http://creativecommons.org/ns#"
   xmlns:rdf="http://www.w3.org/1999/02/22-rdf-syntax-ns#"
   xmlns:svg="http://www.w3.org/2000/svg"
   xmlns="http://www.w3.org/2000/svg"
   xmlns:sodipodi="http://sodipodi.sourceforge.net/DTD/sodipodi-0.dtd"
   xmlns:inkscape="http://www.inkscape.org/namespaces/inkscape"
   version="1.1"
   id="svg2"
   width="690"
   height="671"
   viewBox="0 0 690 671"
   sodipodi:docname="Logo of the canton of Zürich.svg"
   inkscape:version="0.92.3 (2405546, 2018-03-11)">
  <metadata
     id="metadata8">
    <rdf:RDF>
      <cc:Work
         rdf:about="">
        <dc:format>image/svg+xml</dc:format>
        <dc:type
           rdf:resource="http://purl.org/dc/dcmitype/StillImage" />
        <dc:title></dc:title>
      </cc:Work>
    </rdf:RDF>
  </metadata>
  <defs
     id="defs6" />
  <sodipodi:namedview
     pagecolor="#ffffff"
     bordercolor="#666666"
     borderopacity="1"
     objecttolerance="10"
     gridtolerance="10"
     guidetolerance="10"
     inkscape:pageopacity="0"
     inkscape:pageshadow="2"
     inkscape:window-width="1920"
     inkscape:window-height="1017"
     id="namedview4"
     showgrid="false"
     inkscape:zoom="0.77095189"
     inkscape:cx="642.45583"
     inkscape:cy="347.77283"
     inkscape:window-x="-8"
     inkscape:window-y="-8"
     inkscape:window-maximized="1"
     inkscape:current-layer="svg2" />
  <g
     id="g86"
     transform="matrix(7.696983,0,0,-7.6940541,330.14529,84.559856)"
     style="fill:#000000;stroke-width:0.17326102">
    <path
       d="M 0,0 C -0.242,-0.501 -0.668,-1.142 -1.125,-1.361 -0.401,-1.49 0.827,-1.746 1.733,-1.648 2.866,-1.525 3.548,-0.473 2.944,0.595 2.902,0.67 2.922,0.883 3.202,0.731 4.604,-0.028 4.314,-2.076 2.851,-2.601 1.453,-3.102 -0.284,-2.35 -1.51,-2.145 -1.328,-2.475 -1.199,-2.894 -1.175,-3.1329999 -0.832,-3.225 0.023,-3.471 -0.01,-3.789 -0.132,-4.7579999 -0.317,-5.921 -0.719,-6.8189998 -1.077,-7.618 -1.724,-8.5439997 -2.516,-8.649 c 0.162,2.7710002 -2.924,0.86 -4.667,1.432 -0.156,-1.97 2.932,-2.493 6.23,-3.906 1.72,-0.737 3.4019999,-1.648 4.522,-3.357 1.306,0.993 2.412,1.588 4.141,2.468 0.647,0.329 1.246,0.631 1.371,1.247 0.099,0.487 0.046,1.777 -0.057,2.543 -0.5150002,3.846 3.218,5.965 5.731,4.014 -0.068,-0.113 -0.141,-0.29 -0.159,-0.477 0.778,-0.1989998 1.605,-0.703 2.132,-1.214 -0.165,-0.1889998 -0.291,-0.3869998 -0.37,-0.6159999 C 16.983,-6.7859998 17.804,-7.461 18.065,-8.142 17.753,-8.415 17.386,-8.9759998 17.250999,-9.258 16.781,-10.246 16.777,-11.497 16.566,-12.625 c -0.185,-0.981 -0.56,-2.074 -1.188,-2.816 -1.367,-1.615 -4.173,-2.513 -5.5580003,-4.216 C 9.3479996,-20.237 9.343,-21.483999 10.161,-21.78 9.378,-22.764999 8.071,-22.92 7.229,-22.816999 7.376,-23.434 8.0679998,-23.78 8.42,-23.813999 7.2449999,-26.163 5.169,-24.989 4.159,-25.627 c -0.097,-0.304999 -0.172,-0.491 -0.263,-0.696 1.707,-0.292 3.519,-0.896999 4.552,-1.316999 0.906,-0.369001 2.28,-1.177 3.563,-0.706001 0.784,0.288 1.527,1.092 2.237,1.628 0.942,0.711 1.987,1.525 3.967,1.290001 1.758,-0.209 3.612999,-1.882 3.462,-4.613001 -0.200001,0.026 -0.366,0.025 -0.513,0 0.081,-0.418 0.187,-1.341999 0.107,-1.900999 -0.263001,0.039 -0.466,0.022 -0.618,-0.008 0.04,-0.506001 -0.104,-1.543999 -0.442,-2.16 -0.504,0.168998 -1.262001,0.292999 -1.927,0.079 -1.854,-0.598004 -3.086,-2.603001 -6.023,-2.357002 -0.692,0.058 -1.583,0.216999 -2.2760003,0.374 C 9.328,-35.865002 8.383,-35.513 7.927,-35.577999 7.396,-35.652 7.3639998,-35.995998 7.2649999,-36.569 5.964,-36.352001 5.1939998,-35.619999 4.998,-34.877998 4.421,-35.294998 4.468,-36.04 4.458,-36.712002 3.336,-36.609001 2.313,-36.196999 1.751,-35.382 1.345,-36.2 0.291,-36.98 -0.935,-36.95 c 0.073,0.512 -0.009,1.338 -0.564,1.864001 C -2.24,-35.998001 -3.07,-36.688 -4.27,-37.542 c 2.234,-1.123 4.746,-2.585998 6.93,-4.457 1.989,-1.703999 4.338,-4.394002 4.463,-7.14 0.1349999,-2.958 -1.992,-4.664001 -3.696,-5.924999 -1.687,-1.248001 -3.094,-2.257 -4.704,-3.333 -0.151,-0.094 -0.141,-0.176003 -0.1,-0.298001 0.387,-1.122001 0.962,-2.226001 1.602,-3.047 0.365,-0.467 1.093,-1.327 1.819,-1.349 1.119,-0.035 2.7089998,0.985001 3.989,1.147 2.797,0.354 4.825,-1.994 3.9329996,-5.044998 -0.177,0.088 -0.4219999,0.127998 -0.5789996,0.108001 0.029,-0.914001 -0.276,-1.877006 -0.54,-2.404007 -0.2250003,0.148003 -0.486,0.230004 -0.667,0.256005 -0.137,-0.756005 -0.551,-1.766999 -1.071,-2.270005 -0.3640001,0.317002 -0.95,0.489006 -1.287,0.527001 -3.979,0.167 -5.815,-0.361 -7.234,0.557007 -0.452,0.291999 -0.957,1.078994 -1.363,1.612999 -0.4239999,0.557998 -0.894,1.419998 -1.336,1.530998 -0.557,0.139 -0.903,-0.082 -1.189,-0.369003 -0.3929998,0.497002 -0.638,1.257003 -0.527,1.894004 -0.516,0.127999 -1.1299998,-0.307998 -1.4849998,-0.660003 C -7.744,-65.621002 -7.9959998,-64.54 -7.854,-63.638 c -0.6899997,0.156002 -1.364,-0.301999 -1.736,-0.741997 -0.677,1.104995 -0.537,2.317997 -0.1259996,3.004997 -0.9340004,0.186001 -1.7490004,0.837002 -2.0730004,1.743 1.587,0.674 1.8090005,1.695 2.333,2.828 0.691,1.496001 5.104,1.664001 5.57,3.77 0.149,0.675998 -0.074,1.553001 -0.312,1.996002 -1.1849999,2.203998 -4.941,2.896999 -8.16,2.875 -0.125,-1.825001 -0.319,-3.384002 -0.68,-4.736 -0.338,-1.266002 -0.902,-2.490002 -1.696,-3.377002 -1.056,-1.180001 -2.904,-1.846002 -4.589,-2.346002 -1.687,-0.5 -3.17,-0.830997 -4.947,-1.247997 -0.292,-0.032 0.145,-3.053001 1.058,-5.008999 0.495001,-1.061004 0.681,-1.637001 1.566,-1.503006 1.102,0.168007 2.609,0.909004 4.003,0.860001 2.841,-0.101997 4.827,-3.122994 3.267,-6.203995 -0.182,0.103996 -0.319,0.173996 -0.476,0.203995 -0.108,-0.696999 -0.403,-1.383995 -0.687,-1.844994 -0.234,0.166001 -0.412,0.244995 -0.638,0.313996 -0.282,-0.867997 -0.843,-1.598999 -1.330999,-1.924996 -0.352001,0.361 -0.834,0.689995 -1.525001,0.714997 -4.289,0.162002 -6.14,-0.468003 -7.883,1.119003 -0.569,0.517998 -1.018,1.370994 -1.39,2.236 -0.729,1.690994 -1.308,2.621994 -2.559,1.386993 -0.514999,0.778008 -0.575,1.760002 -0.236,2.408005 -0.562,0.181 -1.323,-0.068 -1.778002,-0.292999 -0.452998,0.800995 -0.394996,2.109001 0.094,2.754998 -1.179,0.115996 -2.298,1.094001 -2.514999,2.395 0.673,-0.018 1.522999,0.341999 1.995999,0.809001 -1.093999,0.224999 -1.969998,1.176999 -2.224999,2.451001 0.724999,0 1.547001,0.160999 2.007999,0.521 1.042,0.812999 0.714001,2.454998 2.327,2.993999 1.935,0.646999 5.72,-0.228001 5.831,2.191998 0.046,1.012001 -0.693,2.944 -1.007,4.151001 -0.335,1.282001 -0.523999,2.622001 -0.523,4.103 -8.931001,-0.851002 -11.792001,5.064 -11.538999,9.872002 0.205997,3.919998 1.618999,6.640999 3.890999,11.166998 2.799,5.576 4.832,9.589 4.659,13.419 -0.078,1.747 -0.719999,3.8050002 -2.021,4.17 -2.484001,0.6950001 -3.432999,-2.1229997 -2.227001,-3.575 0.406002,-0.489 1.192001,-0.849 2.133001,-0.751 0.033,-1.298 -0.626001,-2.095 -1.545,-2.312 0.321,-2.375 -0.652,-4.379 -2.346,-5.308 -0.021,0.274 -0.092,0.492 -0.161999,0.754 -1.216999,-0.952 -3.836003,-1.952 -5.537003,-0.801999 0.502003,0.573999 0.758003,0.872 1.081002,1.317999 0.665,0.914 1.221,2.014 1.300998,3.278 0.083,1.32 0.138001,2.614 0.164002,3.693 0.082,3.4060001 2.341999,6.925 6.494999,6.616 3.500001,-0.26 5.481001,-3.121 5.661001,-6.947 0.208,-4.413 -2.02,-9.478 -5.038,-16.554 -1.197998,-2.809 -2.314,-5.732 -2.223,-7.986002 0.111,-2.772998 1.963001,-4.713997 4.578,-4.778999 1.593,-0.04 3.562,0.73 4.388,1.569001 0.116001,0.118 0.226,0.282001 0.674,0.903999 1.994001,2.769001 6.083,4.557003 6.326,8.924001 -1.368,-0.42 -3.131,0.424 -3.428,1.432 1.221001,0.452 2.094,1.442001 1.79,3.987001 -0.02,0.238999 -0.052,0.575999 -0.063,0.869999 -0.675999,-0.114 -1.227999,-0.596 -1.549,-1.115 -2.219,2.291 -1.072,5.216 -0.319,7.251 -1.706,-0.083 -3.074,1.225 -3.248999,2.387 0.824999,0.108 1.344,0.712 1.324999,1.437 -0.017,0.598 -0.435999,1.508 -0.765,2.2250002 C -25.378,-7.842 -26.287,-5.782 -26.236,-2.988 c -1.221,0.576 -1.76,2.005 -1.723999,3.131 1.047999,0.076 1.792999,0.576 1.824999,1.246 0.026,0.533 0.115,1.529 0.337,2.187 -0.4,0.391 -1.041,1.5849998 -0.411999,2.9859998 C -25.763,6.459 -25.061,6.439 -24.636,6.675 c 0.186,0.102 0.547,0.7489998 1.162,1.199 -0.09,0.435 -0.005,1.4109998 0.481,2.0289999 0.3,-0.1359999 0.784,-0.2679999 1.26,-0.316 2.07,-0.21 6.987,1.2510001 10.622,-0.1189999 0.758,-0.2850004 1.3990001,-0.72 1.872,-1.192 0.722,-0.077 1.628,-0.233 2.523,-0.434 1.7790002,-0.3980002 1.743,-0.72 2.407,-0.849 0.269,-0.052 1.015,-0.106 1.76,-0.17 C -1.754,6.756 0.533,6.3379998 0.985,5.8509998 1.399,5.405 0.977,4.604 1,3.729 1.021,2.92 1.426,1.488 0.877,0.526 0.699,0.215 0.348,0.06 0,0 M -14.29,9.048 C -17.944,9.1599998 -19.215,8.585 -21.458,8.4899998 -21.889,8.501 -22.233999,8.6169996 -22.365,8.677 -22.473,8.429 -22.513,7.804 -22.37,7.506 -23.604,6.769 -23.747999,5.326 -25.372999,5.5879998 -25.478,5.142 -25.202999,4.534 -24.892,4.306 c 0.167,0.065 0.51,0.185 0.458,0.018 -0.656,-1.86 -0.525999,-2.656 -0.691999,-3.593 -0.099,-0.561 -0.896,-1.075 -1.623001,-1.219 -0.052,-0.494 0.265001,-1.239 0.955,-1.363 0.415,0.842 1.028,0.973 0.922,0.715 -0.177,-0.429 -0.322,-1.192 -0.335,-1.741 -0.044,-1.837 0.424,-3.6979998 1.01,-5.061 1.142,-2.657 2.559,-4.779 0.59,-6.023 0.257,-0.616 1.529001,-1.046 2.470001,-0.67 0.390999,1.025 0.143999,1.793 0.092,2.048 -0.019,0.088 0.068,0.107 0.166,0.029 0.574,-0.482 0.607001,-1.432 0.497,-2.185 -0.291,-1.998 -1.996,-4.466999 -0.818,-6.789999 0.352,0.320999 0.896,0.583999 1.389,0.694 0.081,1.212999 0.464,2.068999 1.167001,2.578999 0.411999,0.299 0.483,0.11 0.370999,-0.016 -0.866999,-1.058001 -0.807,-3.049 -0.575,-4.837 0.289,-2.232001 -0.415,-3.545 -1.086,-3.897001 0.825001,-0.519999 2.196,-0.205 2.901,0.163 0.516,0.268 1.318,0.936 1.623,1.547 -0.781,1.338 -0.83,2.590001 -0.632,3.395001 0.163,0.661999 0.533,0.891999 0.464,0.571999 -0.498,-2.814 2.179,-4.105999 2.12,-6.848 1.389,0.457001 1.994,2.132 1.881,3.707001 0.024,0.212999 0.192,0.105999 0.269,-0.108 0.788,-2.243 -0.641,-5.372001 -3.295,-5.099001 0.372,1.326 -0.063,2.881 -0.448,3.637 -0.34,-0.699 -0.984999,-1.287 -1.599,-1.634 -0.083,-0.698 -0.239999,-1.311 -0.361,-1.819 -0.437999,-1.84 -1.207,-3.120998 -2.351,-4.292999 -2.501,-2.563999 -3.427,-2.770001 -5.062,-5.144001 -0.356,-0.367 -1.437,-0.952 -2.061,-1.199002 -4.951,-1.951 -9.099,0.702004 -8.770001,6.012002 0.132999,2.133001 1.246002,4.941 2.132999,6.970001 2.594002,5.934999 5.035002,10.899 5.348002,15.425999 0.256,3.722 -1.344,7.432 -5.213999,7.471 -2.629001,0.027 -5.163001,-2.13 -5.219001,-6.457 -0.032,-2.551 0.026,-4.477 -1.065999,-6.217 -0.233001,-0.372 -0.347999,-0.556 -0.663001,-0.962999 1.507,-0.251001 3.098998,0.601999 4.159,1.816 0.102001,-0.179001 0.264,-0.465 0.332,-0.743 1.114998,1.067999 1.293,3.038999 0.881001,4.602999 0.725998,-0.21 1.380001,0.233 1.639999,0.849 -1.679,0.222 -2.802002,1.815 -2.536999,3.5630002 0.156999,1.0339999 1.07,2.1629998 2.307999,2.309 3.228001,0.3799998 4.175,-2.8930002 4.13,-5.9970002 -0.058,-3.936 -2.432999,-8.284 -4.538,-12.694 -1.695,-3.551 -3.615998,-7.155 -3.812001,-10.528 -0.216999,-3.742 1.495003,-10.427002 10.804001,-8.979999 0.373001,1.086998 0.832,1.509999 1.111,1.384999 0.09,-0.046 0.023,-0.217999 -0.028,-0.569001 -0.169,-1.150997 -0.225,-1.869999 -0.169,-3.099999 0.11,-2.423 1.165,-4.841999 1.289001,-6.593002 0.195999,-2.771999 -1.235001,-3.088997 -3.499001,-3.345997 -0.951999,-0.108001 -2.368,-0.073 -3.234,-0.488003 -0.504,-0.241996 -0.834,-1.491996 -1.325,-2.119998 -0.483001,-0.619 -1.149002,-0.93 -1.955002,-1.086998 0.245003,-0.623002 1.085003,-1.072002 1.997002,-1.096001 0.331001,0.246998 0.692,0.834 0.845,1.538998 0.032,0.145999 0.21,0.249001 0.192001,-0.292999 -0.05,-1.458 -1.393,-3.048001 -2.893999,-3.273999 0.269996,-0.695999 1.333999,-1.220001 2.164997,-1.124001 0.650001,0.349 1.167001,0.967999 1.404001,1.847001 0.062,0.249 0.221001,0.137001 0.211,-0.193001 -0.019,-0.868 -0.467,-1.577 -1.057,-2.119999 -0.589,-0.542999 -0.971,-1.265 -0.778998,-2.114998 0.388998,0.195999 1.140999,0.237999 1.705998,0.112999 0.286001,0.267998 0.687,0.715996 0.803001,1.364998 0.039,0.213997 0.26,0.168999 0.222,-0.337998 -0.092,-1.209999 -1.085001,-1.761001 -0.831001,-2.904998 2.368,1.132996 2.628,-3.077004 4.471,-4.346001 1.528,-1.052002 4.360001,-0.421005 6.936,-0.607002 0.184,1.134002 0.908,2.295997 1.912,2.509002 -0.428999,1.618997 -2.306999,1.559998 -3.167,1 -0.187,-0.124 -0.132999,0.123993 0.078,0.298997 1.043,0.776 2.555,0.539001 3.275001,-0.357003 0.177,0.327004 0.525999,0.596001 0.807999,0.645004 -0.741,1.547997 -2.511,1.839997 -3.790999,1.054001 -0.231001,-0.151001 -0.163,0.186997 0.243999,0.422997 1.534001,0.889 3.159001,0.194 3.881,-0.943001 0.147,0.243004 0.464,0.543999 0.708,0.525002 -0.419,1.003997 -1.512,1.711997 -2.905,1.687004 -2.416,-0.04501 -4.451,-1.650002 -5.336,-0.411004 -0.994999,1.405 -2.233,3.957001 -2.33,7.005001 0,0.257 0.01,0.497998 0.24,0.580998 1.871,0.427002 3.639,0.776001 5.219,1.290001 1.7,0.553001 3.391,1.140999 4.608,2.569 1.296,1.520001 1.649,4.949001 1.87,7.731 0.106,1.330001 0.236,3.296001 0.338,4.754001 0.164,2.333 0.656,3.821999 1.569,4.251999 0.232,0.107002 0.347,-0.006 0.168,-0.327999 -0.233,-0.383999 -0.425,-1.104001 -0.516,-1.758 0.407,0.315999 0.932,0.666 1.296,0.863999 1.1970003,0.649002 1.998,1 3.3170001,1.692001 1.2599999,0.66 2.4660001,1.536999 3.3659999,2.243999 0.569,0.446999 1.232,0.984001 1.801,1.751 -0.139,0.186001 -0.2849999,0.43 -0.357,0.598 -0.642,-0.867001 -1.963,-1.584 -3.0019998,-1.494 0.2749998,0.870998 -0.041,2.09 -0.7720002,2.691002 -0.808,0.663998 -1.3129998,1.036999 -1.8229996,1.595999 -1.6970014,1.86 -0.2490014,5.786 -1.9900014,8.154 -0.122,0.244 0.142,0.179001 0.427,-0.092 1.0130003,-0.959001 1.205,-2.435001 1.415,-3.915001 0.1570003,-1.11 0.222,-2.435 0.7500002,-3.264999 0.941,-1.478 3.0829998,-1.803 2.9899998,-4.029 0.6820001,0.181 1.522,0.839 1.557,1.421001 -0.033,0.265999 -0.165,0.865999 -0.527,1.136999 -0.089,0.067 -0.033,0.204 0.237,0.119 0.504,-0.158 0.753,-0.779999 0.9680001,-1.235999 C -2.227,-32.884998 -1.986,-33.333 -1.642,-33.730999 c 0.619,-0.715 1.378,-1.077999 1.483,-2.238003 0.573,0.178002 1.337,0.771 1.406,1.533002 -0.304,0.866 -0.108,1.677001 -1.007,2.274001 -0.118,0.079 -0.064,0.279999 0.424,0.075 C 1.81,-32.568 1.637,-33.936 2.194,-34.687 c 0.371,-0.501 0.8139999,-0.923 1.569,-1.091 0.079,0.702 0.379,1.46 1.001,1.865002 -0.058,0.390999 -0.118,0.622998 -0.5580001,0.967998 -0.1180001,0.093 -0.097,0.28 0.4040001,0.026 1.0379998,-0.526001 0.7339999,-2.007999 2.124,-2.595001 0.396,1.226002 1.8929999,0.803001 3.313,0.435001 0.708,-0.183002 1.578,-0.399001 2.338,-0.436 2.821,-0.138001 3.291,1.758999 5.764,2.374 -0.176,1.233999 0.077,2.365 0.869,2.838 -1.035,1.222 -2.745,0.597 -3.324,-0.239001 -0.13,-0.169 -0.113,0.127 0.085,0.412001 0.744,1.123999 2.252,1.238999 3.169999,0.702999 -0.019,0.384001 0.129,1.013 0.363001,1.029 -0.675001,0.76 -2.658001,1.071 -3.731,-0.227999 -0.13,-0.146 -0.097,0.135 0.059,0.365999 0.783,1.07 2.55,1.373001 3.746,0.48 -0.009,0.25 0.118999,0.79 0.412,0.804 -0.505001,0.598 -1.512001,0.950001 -2.5,0.851 -2.842,-0.285 -3.619,-3.423 -6.685,-3.166 -0.7080003,0.059 -1.393,0.515001 -2.765,0.986 -0.719,0.247 -1.6020002,0.492 -2.401,0.679001 -2.194,0.513999 -4.23,0.541 -5.361,2.018999 -0.381,0.498001 -0.712,1.101 -0.84,1.988001 -0.068,0.409 0.091,0.594999 0.205,0.320999 0.673,-1.322 1.375,-2.548 3.045,-2.873 0.684,1.3 1.195,3.517001 1.11,5.434 -0.726,0.327 -0.721,0.657 -0.955,0.756 0.104,-1.457 -0.443,-2.978999 -0.898,-3.434 -0.208,1.365001 -1.343,2.376 -2.51,2.692 -0.15,0.041 -0.17,0.286 0.465,0.243 0.429,-0.029 1.434,-0.295 1.876,-0.88 0.403,1.405 0.162,2.720001 -0.335,3.998 -0.269,0.69 -0.91,1.593 -1.624,2.117 -0.154,0.113 -0.09,0.289 0.416,0.028 1.298,-0.67 2.297,-1.981 2.519,-3.8 0.6849999,-0.400999 0.972,-1.298 1.9359998,-1.041 C 3.671,-19.134 4.084,-17.586 2.783,-15.335 c -0.691,1.197 -1.618,2.058 -3.175,2.823 -1.9219999,0.943 -4.2359998,1.607 -5.717,2.2 C -7.663,-9.6899996 -8.524,-9 -8.7279997,-6.7589998 -9.248,-6.525 -9.552,-6.19 -9.862,-5.801 c -0.284,-0.246 -0.458,-0.79 -0.469,-1.144 -1.009,0.487 -1.547,1.512 -1.641,2.4090002 C -12.29,-4.583 -12.928,-6.407 -15.264,-5.534 c 1.388,1.45 -0.514,2.593 0.983,4.319 0.281,0.349 0.705,0.439 0.519,0.178 -1.366,-1.953 0.28,-2.626 -0.358,-3.903 1.48,-0.139 1.569,1.818 2.867,1.787 -0.179,-0.866 0.022,-2.049 0.549,-2.417 0.311,0.5480002 0.692,0.908 1.2660003,1.129 C -9.1859999,-5.513 -8.428,-6.0879998 -7.504,-6.293 c 1.3970001,-0.31 2.9690002,0.517 4.1110001,0.355 C -2.704,-6.0349998 -2.088,-6.44 -1.842,-7.021 c 0.57,0.5590001 1.092,2.674 0.866,2.832 -2.225,1.39 -5.831,-1.5889999 -6.884,0.929 -0.1859995,0.445 -0.277,1.013 -0.199,1.518 0.312,2.032 1.658,3.014 4.076,2.838 1.06,-0.077 3.385,-0.577 4.006,-0.117 0.513,0.382 0.373,1.818 0.061,2.444 -0.626,0.169 -1.35,0.589 -1.313,1.05 0.039,0.4099999 0.42,-0.452 1.252,-0.1940002 0.233,0.105 0.36,0.9490002 0.207,1 C -1.106,5.777 -2.943,6.092 -4.5689998,5.92 -4.809,5.1939998 -5.38,5.1199999 -5.429,4.563 -5.512,3.608 -5.8119998,2.823 -6.216,2.511 -6.373,2.405 -6.363,2.566 -6.27,2.869 -6.156,3.242 -6.024,3.863 -6.199,4.248 -6.5689998,5.0609999 -8.161,4.947 -8.1969995,5.846 -8.2209997,6.2129998 -8.007,6.172 -6.431,5.8049998 -5.7659998,5.65 -5.6989999,5.639 -5.604,5.8439999 -5.342,6.432 -6.2449999,6.748 -7.0419998,6.94 -9.4359999,7.518 -11.642,7.4429998 -12.579,7.079 c 0.946,-0.448 1.19,-1.3530002 0.892,-1.784 -0.207,-0.276 -0.059,0.446 -1.123,1.087 -1.162,0.701 -3.215,0.813 -3.614999,0.249 -0.226,-0.318 -0.287001,-1.264 -0.219,-1.693 C -16.525,4.201 -16.287,3.478 -15.473,2.932 -14.354,2.182 -13.6,2.599 -13.705,2.3599999 -13.942,1.852 -15.4,1.923 -16.254999,2.603 -16.964,3.167 -17.490999,3.911 -17.628,4.9689999 -17.726,5.7199998 -17.626,6.849 -17.282,7.257 c 0.464,0.552 1.785,0.672 3.02,0.432 0.994,0.304 2.308,0.4969999 3.318,0.425 -0.707,0.5929998 -2.108,0.896 -3.346,0.934 m 7.115,-11.173 c 1.1470001,0.953 2.8100002,1.311 5.248,0.893 -0.02,0.418 -0.254,1.025 -0.451,1.316 -2.4409998,0.403 -4.748,0.441 -4.797,-2.209 m 5.497,2.227 c 0.134,-0.31 0.223,-0.658 0.242,-0.787 0.02,-0.135 0.013,-0.255 0.085,-0.219 0.239,0.119 0.644,0.658 0.711,1.031 C -0.924,0.077 -1.434,0.085 -1.678,0.102 M -6.8579998,-3.053 C -6.564,-4.034 -4.816,-3.103 -3.4489999,-3.0079999 -3.0179999,-2.654 -2.685,-2.295 -2.504,-1.979 -4.172,-1.645 -6.0149999,-1.862 -6.8579998,-3.053 M -2.036,-2.255 c -0.048,0.024 -0.084,-0.086 -0.159,-0.201 -0.103,-0.16 -0.278,-0.4039999 -0.526,-0.619 0.238,0.015 0.7030001,-0.017 0.919,-0.066 0.027,0.32 -0.162,0.852 -0.234,0.886 m 15.838,-2.146 c -0.455,0.2150001 -1.317,0.329 -1.908,-0.011 -0.193,-0.171 0.05,-0.405 0.606,-0.519 0.432,0.2050002 0.89,0.2900002 1.268,0.3030002 0,0.09 0.011,0.125 0.034,0.2269998 m -2.678,-4.008 c -0.31,0.855 -0.255,1.491 0.086,2.2290002 0.166,0.3599998 0.548,0.769 0.806,0.9629998 -0.451,0.101 -0.621,0.335 -0.677,0.539 C 8.887,-5.9889998 10.164,-8.5299997 9.9119997,-10.791 9.7559996,-12.197 7.9689999,-12.7 6.794,-13.436 5.784,-14.068 4.7919998,-14.75 4.0939999,-15.463 5.359,-18.458 4.493,-19.115 5.905,-20.562 c -0.24,-0.289 -0.6930001,-0.49 -1.024,-0.493 -0.019,-1.268 -0.132,-2.417 -0.459,-3.552 1.033,0.42 1.802,-0.277 2.663,0.563 -0.792,0.603 -0.825,1.721 -0.6220002,2.345001 0.1180001,0.361 0.2710002,0.316 0.2710002,0.215999 0,-0.182 0.024,-0.346 0.065,-0.462999 0.46,-0.119001 1.434,-0.166001 2.0790002,0.257 -1.101,1.884999 1.007,3.542999 2.6029998,4.584999 1.107,0.723 2.704,1.521 3.494,2.588 1.065,1.438 0.542,3.001 1.226,5.1300003 -0.804,0.4029999 -1.869,1.198 -1.752,2.3389997 -0.845,-0.1069998 -1.839,-1.154 -1.294,-2.93 0.091,-0.306 -0.096,-0.217 -0.274,0.07 -0.693,1.2999996 -0.074,2.7859998 0.714,3.2209997 -0.443,0.283 -0.811,0.8359999 -0.766,1.1310001 C 11.547,-6.021 11.141,-7.1339998 11.418,-8.612 11.462,-8.831 11.28,-8.838 11.124,-8.409 m 4.653,2.283 c -0.454,0.4400001 -1.62,0.982 -2.458,0.706 -0.068,-0.341 0.404,-0.798 0.745,-1.002 0.41,0.1560002 0.99,0.2220002 1.613,0.079 0.026,0.065 0.057,0.132 0.1,0.217 m 1.258,-1.891 c -0.481,0.749 -1.474,1.036 -1.992,0.986 -0.18,-0.731 0.766,-1.5739995 1.402999,-1.8099996 C 16.650999,-8.376 16.853,-8.142 17.035,-8.017 m 2.839,-20.119 c 0.342,-0.356 0.692,-0.878 0.858,-1.336 0.055,0.015 0.150999,0.038 0.212,0.038 0.041,0.605 -0.336,1.686001 -0.834,2.116 -0.214,0.059 -0.293001,-0.54 -0.236,-0.818 m 0.746,-3.097 c 0.017,0.852 -0.447,2.038 -0.949,2.471001 -0.244,-0.038 -0.293,-0.614 -0.266,-0.996 0.477999,-0.413001 0.796,-1.018 0.949,-1.521 0.091,0.021 0.194,0.043 0.266,0.046 m -1.329,0.526 c -0.710001,-0.48 -0.712,-1.605 -0.589,-2.321999 0.377,0.069 0.687,0.055 1.016,-0.048 0.226,0.745 -0.002,1.937001 -0.427,2.37 M 6.9299998,-62.741001 C 4.636,-62.506 2.429,-64.563004 0.984,-63.653 c -0.658,0.415001 -1.538,1.365002 -2.182,2.307 -0.405,0.593002 -1.546,2.295001 -1.442,2.979999 0.043,0.283001 0.4970001,0.493 1.297,1 1.398,0.887001 2.653,1.771999 3.816,2.712002 1.416,1.142997 3.594,2.869999 3.616,5.111999 0.014,1.543999 -1.005,3.220001 -1.801,4.252 -1.399,1.812 -3.806,3.537002 -6.101,4.844001 -1.009,0.575001 -2.8939998,1.557999 -4.069,2.024998 -1.156,-0.650998 -1.7249999,-0.826001 -2.7049999,-1.354001 C -7.8699999,-40.062 -7.28,-40.527 -7.396,-40.922 c -0.072,-0.245999 -0.254,-0.299 -1.1129998,-0.871999 -0.5019999,-0.335003 -1.1180001,-0.819 -1.4029999,-1.082 C -10.545,-43.457 -10.892,-44.103 -11.43,-44.742 c -0.326,-0.388001 -0.532,-0.531998 -0.862,-0.779 -0.002,-0.323002 -0.02,-0.618 -0.04,-1.028 3.744,-0.106998 7.1320002,-1.191002 8.765,-3.285 0.233,-0.298999 0.5950001,-0.817 0.741,-1.203998 0.734,-1.955002 -0.513,-3.549004 -1.559,-4.240002 -1.041,-0.687 -3.412,-1.104999 -4.08,-1.736 -0.5149995,-0.487999 -0.562,-1.365002 -1.1729995,-2.124 C -9.913,-59.48 -10.238,-59.686 -10.623,-59.905998 c 0.209,-0.394001 1.01,-0.741001 1.5810002,-0.680001 0.2220001,0.216 0.4429998,0.363999 0.6729998,0.711999 0.175,0.264 0.329,0.688999 0.316,1.159 -0.003,0.117 0.1630001,0.245998 0.237,-0.144001 0.3720002,-1.944999 -1.887,-2.170998 -1.481,-4.347999 0.415,0.278999 1.079,0.609 1.7890001,0.43 0.1779999,0.379001 0.4330001,0.602001 0.6389999,0.925998 0.1240001,0.195004 0.27,0.499001 0.25,1.056004 -0.004,0.142998 0.186,0.195999 0.265,-0.296002 0.223,-1.401 -1.2599998,-1.757999 -0.647,-3.975002 0.4000002,0.345002 0.987,0.497002 1.5520001,0.482002 0.1479999,0.311997 0.5060001,0.635998 0.421,1.338002 C -5.047,-63.09 -4.881,-62.932999 -4.757,-63.452999 c 0.246,-1.038998 -0.63,-1.430004 -0.1799998,-2.801998 C -3.376,-65.623001 -2.976,-66.750999 -2.284,-67.642998 c 0.395,-0.510002 0.917,-1.315002 1.328,-1.631004 1.049,-0.805 3.985,-0.111 6.212,-0.347 0.143,1.209999 0.927,2.291 1.881,2.519005 -0.4510001,1.5 -2.4310001,1.853996 -3.407,0.851997 -0.148,-0.151 -0.056,0.25 0.234,0.495003 0.937,0.790001 2.615,0.545997 3.444,-0.537003 0.1659999,0.408997 0.487,0.769997 0.732,0.779999 -0.7030002,1.493004 -2.747,1.822002 -3.87,0.910004 -0.088,-0.07201 -0.118,0.125999 0.195,0.398994 0.868,0.761002 2.725,0.706001 3.821,-0.459999 0.076,0.426002 0.2959998,0.742001 0.517,0.742001 -0.302,0.488002 -1.1290002,1.104 -1.8730002,1.18 M -9.533,-40.285 c -1.15,-0.421001 -2.589,-1.397999 -2.631,-1.672 -0.097,-0.634999 -0.135,-1.547002 -0.135,-2.231 0.749,0.435002 0.962,1.213002 1.805,1.877 1.5180002,1.198001 2.257,1.371001 2.1760002,1.546001 C -8.493,-40.446999 -9.205,-40.285 -9.533,-40.285 M 9.389,-66.125999 c 0.097,0.497001 0,1.423996 -0.264,1.765999 -0.1850004,0.117004 -0.4020004,-0.236 -0.497,-0.654 0.214,-0.311996 0.4699996,-0.792999 0.526,-1.111999 0.078,0.01 0.151,0.01 0.235,0 m -1.6690002,-0.64 C 7.9229999,-67.129997 8.088,-67.849998 8.1009998,-68.305 8.208,-68.312 8.345,-68.312 8.442,-68.341 c 0.296,0.886001 0.198,1.968002 -0.097,2.361 -0.179,0.05701 -0.491,-0.409996 -0.6250002,-0.785996 M 5.8439999,-69.656998 C 6.247,-69.722 6.629,-69.885002 6.8509998,-70.028 c 0.198,0.328003 0.6960002,1.655998 0.4100002,2.384003 -0.82,-0.078 -1.431,-1.43 -1.4170001,-2.013001 M -14.754,-70.856003 c 0.296,0.868004 0.208,1.917999 -0.101,2.330003 -0.078,0.104003 -0.526,-0.145997 -0.604,-0.459 0.246,-0.420998 0.484,-1.291 0.458,-1.823998 0.078,0 0.168,-0.012 0.247,-0.047 m -1.781999,0.677003 c 0.275999,-0.537003 0.423999,-1.475999 0.345999,-2.052003 0.102001,-0.01099 0.229,-0.051 0.343,-0.1 0.225,0.555999 0.455,1.903999 -0.045,2.793998 -0.233999,-0.03899 -0.579,-0.291 -0.643999,-0.641997 M -18.392,-73.246002 c 0.304001,-0.093 0.635,-0.278 0.793,-0.518997 0.385,0.460999 0.913,1.541 0.683,2.537002 -0.723999,0.003 -1.393999,-1.130005 -1.476,-2.018005"
       style="fill:#000000;fill-opacity:1;fill-rule:nonzero;stroke:none;stroke-width:0.17326102"
       id="path88"
       inkscape:connector-curvature="0" />
  </g>
  <g
     id="g90"
     transform="matrix(7.696983,0,0,-7.6940541,234.95832,51.243524)"
     style="fill:#000000;stroke-width:0.17326102">
    <path
       d="M 0,0 C -0.108,-0.511 -0.551,-0.637 -0.553,-0.256 -0.558,0.833 -1.697,1.385 -2.901,1.493 -3.2219999,1.522 -2.903,1.755 -2.57,1.786 -1.418,1.895 0.247,1.167 0,0"
       style="fill:#000000;fill-opacity:1;fill-rule:nonzero;stroke:none;stroke-width:0.17326102"
       id="path92"
       inkscape:connector-curvature="0" />
  </g>
  <g
     id="g94"
     transform="matrix(7.696983,0,0,-7.6940541,159.25928,125.93464)"
     style="fill:#000000;stroke-width:0.17326102">
    <path
       d="m 0,0 c -0.408,-2.32 0.849,-2.468 0.918,-4.178 0.835,-0.158 1.757,0.451 2.264,1.25 C 3.265,-2.796 3.343,-2.932 3.27,-3.225 2.971,-4.425 1.436,-5.602 -0.041,-5.0869999 0.622,-3.526 -1.304,-2.02 -0.273,-0.11 -0.069,0.263 0.029,0.191 0,0"
       style="fill:#000000;fill-opacity:1;fill-rule:nonzero;stroke:none;stroke-width:0.17326102"
       id="path96"
       inkscape:connector-curvature="0" />
  </g>
  <g
     id="g98"
     transform="matrix(7.696983,0,0,-7.6940541,191.12474,174.35259)"
     style="fill:#000000;stroke-width:0.17326102">
    <path
       d="m 0,0 c 0.134,0.167 0.251,0.121 0.204,-0.043 -1.156,-3.848 1.682,-4.121 1.899,-7.438 1.179,0.318 1.709,1.273 2.098,2.4120002 C 4.293,-4.762 4.451,-4.931 4.428,-5.3439999 4.3829999,-6.1989999 4.146,-6.896 3.876,-7.307 3.389,-8.0459995 2.28,-8.974 0.876,-8.7399998 1.768,-5.846 -0.667,-4.769 -0.674,-2.171 -0.676,-1.565 -0.434,-0.503 0,0"
       style="fill:#000000;fill-opacity:1;fill-rule:nonzero;stroke:none;stroke-width:0.17326102"
       id="path100"
       inkscape:connector-curvature="0" />
  </g>
  <g
     id="g102"
     transform="matrix(7.696983,0,0,-7.6940541,307.06127,227.71364)"
     style="fill:#000000;stroke-width:0.17326102">
    <path
       d="M 0,0 C -0.093,0.136 -0.099,0.387 0.41,-0.08 2.7119999,-2.1889999 0.444,-5.862 1.988,-7.678 -0.132,-8.507 -2.16,-7.043 -2.398,-5.7909999 -2.5079999,-5.176 -2.066,-5.997 -1.483,-6.3839998 -0.992,-6.709 -0.036,-7.043 0.463,-6.9299998 -0.132,-4.671 1.701,-2.755 0,0"
       style="fill:#000000;fill-opacity:1;fill-rule:nonzero;stroke:none;stroke-width:0.17326102"
       id="path104"
       inkscape:connector-curvature="0" />
  </g>
  <g
     id="g855"
     transform="matrix(0.26066307,0,0,0.25937783,556.36645,270.05288)"
     style="stroke-width:3.8458631">
    <path
       id="path841"
       d="M 0,0 H 474 V 474"
       inkscape:connector-curvature="0"
       style="fill:#ffffff;stroke-width:3.8458631" />
    <path
       id="path843"
       d="M 0,0 V 474 H 474"
       inkscape:connector-curvature="0"
       style="fill:#009ee0;fill-opacity:1;stroke-width:3.8458631" />
  </g>
  <path
     style="fill:none;stroke:#000000;stroke-width:4;stroke-linecap:butt;stroke-linejoin:miter;stroke-opacity:1;stroke-miterlimit:4;stroke-dasharray:none"
     d="m 556.36645,270.05288 v 122.94509 h 123.5543 V 270.05288 Z"
     id="path857"
     inkscape:connector-curvature="0" />
</svg>
